<svg id="visual" viewBox="0 0 960 540" width="960" height="540" xmlns="http://www.w3.org/2000/svg" xmlns:xlink="http://www.w3.org/1999/xlink" version="1.1"><rect x="0" y="0" width="960" height="540" fill="#272343"></rect><path d="M0 46L20 51.5C40 57 80 68 120 73.3C160 78.7 200 78.3 240 76.3C280 74.3 320 70.7 360 65.7C400 60.7 440 54.3 480 48.2C520 42 560 36 600 39.2C640 42.3 680 54.7 720 57.5C760 60.3 800 53.7 840 55.5C880 57.3 920 67.7 940 72.8L960 78L960 0L940 0C920 0 880 0 840 0C800 0 760 0 720 0C680 0 640 0 600 0C560 0 520 0 480 0C440 0 400 0 360 0C320 0 280 0 240 0C200 0 160 0 120 0C80 0 40 0 20 0L0 0Z" fill="#FFD803" stroke-linecap="round" stroke-linejoin="miter"></path></svg>