<svg xmlns="http://www.w3.org/2000/svg" width="476.848" height="426.12" viewBox="0 0 476.848 426.12"><g transform="translate(34 -171.528)"><g transform="translate(376.729 175.013)"><path d="M2033.5,6888.642c3.107-2.17,6.162-8.682,12.43-8.682s6.259,8.682,12.58,8.682,6.367-8.682,12.7-8.682,6.411,8.682,12.641,8.682,9.21-6.511,12.281-8.682" transform="translate(-2033.5 -6879.96)" fill="none" stroke="#f15bb5" stroke-linecap="round" stroke-width="5"/></g><g transform="translate(-34 336)"><g fill="none" stroke="#fee440" stroke-width="5"><circle cx="34.5" cy="34.5" r="34.5" stroke="none"/><circle cx="34.5" cy="34.5" r="32" fill="none"/></g></g><g transform="translate(35.423 583)"><path d="M2033.5,6891.138c4.128-2.794,8.186-11.177,16.513-11.177s8.315,11.177,16.712,11.177,8.459-11.177,16.877-11.177,8.517,11.177,16.794,11.177,12.236-8.383,16.314-11.177" transform="translate(-2033.5 -6879.961)" fill="none" stroke="#9b5de5" stroke-linecap="round" stroke-width="5"/></g></g></svg>