<svg xmlns="http://www.w3.org/2000/svg" viewBox="0 0 1490.26 708.49"><defs><style>.cls-1{fill:#fff;}</style></defs><g id="Layer_2" data-name="Layer 2"><g id="Layer_1-2" data-name="Layer 1"><path class="cls-1" d="M120.76,69.91A2.6,2.6,0,0,0,117,66.33a362.51,362.51,0,0,0-66.32,81.19,367.36,367.36,0,0,0-47,134A379,379,0,0,0,11,424.65a369.51,369.51,0,0,0,24.21,68.16,377.35,377.35,0,0,0,85.11,116.28,381.89,381.89,0,0,0,57.52,43.79,368.63,368.63,0,0,0,276.07,46.49,355.44,355.44,0,0,0,97.73-38.52,2.61,2.61,0,0,0-2.29-4.67,387,387,0,0,1-98.44,26.7c-44.82,5.85-90.34,4.11-133.81-5.75a369.82,369.82,0,0,1-121.88-51.55,365.18,365.18,0,0,1-51.85-41.08A368.62,368.62,0,0,1,65.56,478.33c-49-101-48.16-221.76-.19-323A397.48,397.48,0,0,1,120.76,69.91Z"/><path class="cls-1" d="M61.75,268.17A366.81,366.81,0,0,1,72.83,226.1a321,321,0,0,1,37.87-76.95,314.64,314.64,0,0,1,26-33.75C198.88,43.76,234.4,29,270.32,9.52c1.35-.85.82-2.37-.75-2.24-15,1.55-29.63,5.84-43.58,11.51A228.44,228.44,0,0,0,186,40a203.4,203.4,0,0,0-34.75,29,413.5,413.5,0,0,0-29.17,34.51,333,333,0,0,0-24.79,37.5,321.87,321.87,0,0,0-18.89,40.59,300.81,300.81,0,0,0-12.73,42.62,323.3,323.3,0,0,0-6.28,43.72C59.34,269,61.31,269.13,61.75,268.17Z"/><path class="cls-1" d="M733.07,304.27,718.7,323a1.23,1.23,0,0,1-2.19-1c16.7-96.57-58-198.53-73.06-218a1.24,1.24,0,0,0-2.21.88l9.14,92.54a1.23,1.23,0,0,1-2.42.43c-8.34-32-28.35-100.56-50.49-117.69C490-2.95,389.94-.77,373,.28a1.22,1.22,0,0,0-.88,2c13.46,16.51,31.53,78.14,42.09,120.87,8.62,34.9,41.61,66.75,41.61,66.75l82.94,78.8a1.24,1.24,0,0,1-.62,2.11L515.69,275a1.23,1.23,0,0,0-.77,1.95c12.67,16.87,117.31,165.55-24.14,298.64a225.84,225.84,0,0,1-59.44,40.49,1.24,1.24,0,0,0,.92,2.29q13-4.41,25.56-9.86c61-26.19,113.45-73.17,139.65-133.95,27.22-60,28.48-130.51,8.83-194.13A361.07,361.07,0,0,0,588,233.74c-7.14-15.14-14.28-30.54-23.49-44.78a382.31,382.31,0,0,0-66.7-76.76c26.09,21.9,50.72,45.93,71.36,73.49,10.37,13.68,20.89,27.55,29.15,42.83a316.66,316.66,0,0,1,37.62,150.72,255.23,255.23,0,0,1-83.56,187.84A274.85,274.85,0,0,1,499,605.33a1.24,1.24,0,0,0,1,2.25l.18-.07s-7.47,3.35-21.21,7.9l-.79.36c199.85-62.39,273.91-254.14,257-311.11A1.24,1.24,0,0,0,733.07,304.27Z"/><path class="cls-1" d="M233,218.12c-15.11,7.57-34.58,43.54-44.83,64.28a1.23,1.23,0,0,1-2.29-.9l15.54-51.61a1.24,1.24,0,0,0-2-1.29c-14.21,12.57-70.64,66.26-73.05,127.72a1.24,1.24,0,0,1-2.34.51l-5.71-11.51a1.24,1.24,0,0,0-2.21,0C98.83,380.84,122.67,511.52,242,576.16l-.47-.33c-8.22-4.64-12.58-7.73-12.58-7.73,3.55,2.2,7,4.24,10.44,6.17a182.47,182.47,0,0,1-38.76-38.63A166.6,166.6,0,0,1,170.71,404.8,206.82,206.82,0,0,1,213.77,313c7.22-8.75,15.7-16.31,24.07-23.77,16.68-15.05,35.48-27.35,55-38.09a249.75,249.75,0,0,0-52.39,40.77c-7.68,8-14.2,16.93-20.67,25.73a235.37,235.37,0,0,0-17.6,27.59c-20.6,38.28-28.67,83.62-18.78,125.47,9.13,42.22,36.79,78.91,72.59,103.37q4.33,3,8.82,5.77a1.24,1.24,0,0,0,1.43-2,148.62,148.62,0,0,1-27.22-29c-72.75-101.5,9.36-182.65,21.62-193.86a1.24,1.24,0,0,0-.38-2.06L247.79,348a1.23,1.23,0,0,1-.21-2.19l62.33-39.59S335.05,290,345,268.68c11.93-25.58,30.79-61.92,41.59-71.62A1.24,1.24,0,0,0,386,195C373.22,191.75,310.52,179.26,233,218.12Z"/><path class="cls-1" d="M898.12,349.73h42.46a1.24,1.24,0,0,0,1.24-1.24V146.07a1.25,1.25,0,0,0-1.4-1.23L898,150.27a1.24,1.24,0,0,0-1.07,1.23v197A1.23,1.23,0,0,0,898.12,349.73Z"/><path class="cls-1" d="M920.08,102.44a1.25,1.25,0,0,1-.94-.42,17.66,17.66,0,0,1-4.35-12.08,10.24,10.24,0,0,1,3.88-8.28q3.89-3.21,10.31-3.21,7.88,0,19.6,4.42a1.23,1.23,0,0,0,1.68-1.15v-20a1.25,1.25,0,0,0-.76-1.15,72.62,72.62,0,0,0-28.29-6.09q-13.86,0-23,8.61a28.3,28.3,0,0,0-9.12,21.45,40,40,0,0,0,3.24,16.19,1.23,1.23,0,0,1-1.13,1.72H878.87a1.23,1.23,0,0,0-1.24,1.23v23.21a1.23,1.23,0,0,0,1.24,1.23h76.82a1.24,1.24,0,0,0,1.21-1l5.19-23.21a1.24,1.24,0,0,0-1.21-1.5Z"/><path class="cls-1" d="M1313.94,130l25.63,24.68a1.24,1.24,0,0,0,1.73,0L1372,124.27a1.25,1.25,0,0,0,0-1.77l-31-30.36a1.24,1.24,0,0,0-1.73,0l-25.3,24.67a1.23,1.23,0,0,1-1.72,0l-25.63-24.68a1.23,1.23,0,0,0-1.73,0L1254.5,122.5a1.24,1.24,0,0,0,0,1.76l31,30.37a1.23,1.23,0,0,0,1.73,0l25-24.65A1.23,1.23,0,0,1,1313.94,130Z"/><path class="cls-1" d="M1315.44,179.13q-35.14,0-57.77,22.29T1235,259.19q0,18.54,10.66,41.48a1.23,1.23,0,0,1-1.11,1.76H1092.15q-14.19,0-24.16-6.59t-12-20.33a1.41,1.41,0,0,1,0-.2V181.2a1.24,1.24,0,0,0-1.39-1.23l-42.12,5.1a1.24,1.24,0,0,0-1.08,1.23l.33,153.29q0,45.35-50.34,45.94a1.24,1.24,0,0,0-1.22,1.35l3.15,34.35a1.25,1.25,0,0,0,1.25,1.13q46.42-.23,68.78-19.09,22.64-19.08,22.64-62V338a1.23,1.23,0,0,1,2.11-.87q12.86,12.65,34,12.64h208.09q44.58,0,70.43-24.49t25.85-66.05q0-34.45-23.14-57.26T1315.44,179.13ZM1338.07,291q-13.52,11.49-36.82,11.48h-12.1a1.27,1.27,0,0,1-1.1-.65q-11.79-21.93-11.8-40.9a37.93,37.93,0,0,1,11.15-27.36,36.25,36.25,0,0,1,27-11.49q15.88,0,26.52,10.64t10.65,26.86Q1351.59,279.47,1338.07,291Z"/><path class="cls-1" d="M1476.88,103.29l-42.46,5.43a1.23,1.23,0,0,0-1.08,1.23V348.49a1.23,1.23,0,0,0,1.23,1.24H1477a1.24,1.24,0,0,0,1.24-1.24v-244A1.24,1.24,0,0,0,1476.88,103.29Z"/><path class="cls-1" d="M877.63,606.86V477.68a1.24,1.24,0,0,1,1.11-1.23l31.44-3.27a1.23,1.23,0,0,1,1.36,1.23V606.86a1.24,1.24,0,0,1-1.23,1.24H878.87A1.24,1.24,0,0,1,877.63,606.86Z"/><path class="cls-1" d="M1057.1,592.3l12.82,16a1.23,1.23,0,0,1-.21,1.75l-21.17,16.33a1.23,1.23,0,0,1-1.72-.21L1031.43,607a1.25,1.25,0,0,0-1.3-.41,92.11,92.11,0,0,1-25.68,3.5c-47.24,0-72.13-31-72.13-68.61,0-37.24,24.89-68.61,72.13-68.61,47,0,71.94,31.37,71.94,68.61,0,19.2-6.58,36.71-19.19,49.21A1.22,1.22,0,0,0,1057.1,592.3Zm-44.64-12L1001.16,563a1.24,1.24,0,0,1,.27-1.66l14.89-11.56a1.24,1.24,0,0,1,1.64.12l15.93,16.45a1.24,1.24,0,0,0,2-.28c3.75-6.8,5.62-15.11,5.62-24.61,0-24.11-12.15-41.36-37.24-41.36-24.9,0-37.25,17.25-37.25,41.36s12.35,41.36,37.25,41.36a43.93,43.93,0,0,0,7.38-.63A1.24,1.24,0,0,0,1012.46,580.28Z"/><path class="cls-1" d="M1148.62,561.44h-16.31a1.24,1.24,0,0,0-1.23,1.24v44.18a1.25,1.25,0,0,1-1.24,1.24H1098.4a1.24,1.24,0,0,1-1.23-1.24V476a1.24,1.24,0,0,1,1.23-1.24H1157c34.11,0,51.36,14.31,51.36,43.32,0,18.08-9.24,31-24.3,37.28a1.25,1.25,0,0,0-.59,1.81l30.1,47.63a1.24,1.24,0,0,1-.93,1.89L1180.46,610a1.24,1.24,0,0,1-1.18-.58L1149.67,562A1.23,1.23,0,0,0,1148.62,561.44Zm5.59-27.44c13.33,0,19.4-5.29,19.4-15.88,0-10.78-6.07-15.88-19.4-15.88h-21.9a1.24,1.24,0,0,0-1.23,1.24v29.28a1.23,1.23,0,0,0,1.23,1.24Z"/><path class="cls-1" d="M1339.06,608.36l-13.8-32.64a1.26,1.26,0,0,0-1.14-.75h-71.87a1.23,1.23,0,0,0-1.14.76l-13.28,31.61a1.23,1.23,0,0,1-1.14.76h-11a1.24,1.24,0,0,1-1.14-1.73l56-130.75a1.28,1.28,0,0,1,.94-.73l12.88-2.09a1.26,1.26,0,0,1,1.34.74l56.25,132a1.24,1.24,0,0,1-.92,1.7l-10.64,1.91A1.24,1.24,0,0,1,1339.06,608.36Zm-80.87-45h60a1.24,1.24,0,0,0,1.14-1.72l-30.08-70.86a1.24,1.24,0,0,0-2.28,0l-29.9,70.86A1.24,1.24,0,0,0,1258.19,563.4Z"/><path class="cls-1" d="M1477.25,608.36l-13.8-32.64a1.24,1.24,0,0,0-1.14-.75h-71.87a1.25,1.25,0,0,0-1.14.76L1376,607.34a1.23,1.23,0,0,1-1.14.76h-11a1.24,1.24,0,0,1-1.14-1.73l56-130.75a1.24,1.24,0,0,1,.94-.73l12.88-2.09a1.24,1.24,0,0,1,1.33.74l56.25,132a1.24,1.24,0,0,1-.92,1.7l-10.63,1.91A1.25,1.25,0,0,1,1477.25,608.36Zm-80.86-45h60a1.23,1.23,0,0,0,1.14-1.72l-30.08-70.86a1.24,1.24,0,0,0-2.28,0l-29.89,70.86A1.23,1.23,0,0,0,1396.39,563.4Z"/></g></g></svg>