<svg xmlns="http://www.w3.org/2000/svg" viewBox="0 0 1490.77 708.49"><defs><style>.cls-1{fill:#609a66;}.cls-2{fill:#9ec18c;}.cls-3{fill:#40513b;}</style></defs><g id="Layer_2" data-name="Layer 2"><g id="Layer_1-2" data-name="Layer 1"><path class="cls-1" d="M132.29,56.76a1.37,1.37,0,0,0-1.89-2C98.93,80.45,72,112.16,50.68,147.52a367.36,367.36,0,0,0-47,134A379,379,0,0,0,11,424.65a369.51,369.51,0,0,0,24.21,68.16,377.35,377.35,0,0,0,85.11,116.28,381.89,381.89,0,0,0,57.52,43.79,368.63,368.63,0,0,0,276.07,46.49c40.25-9.41,78.73-25.47,112.71-47.79a1.37,1.37,0,0,0-1.31-2.4c-36.64,17-75.15,28.63-114.4,33.7-44.82,5.85-90.34,4.11-133.81-5.75a369.82,369.82,0,0,1-121.88-51.55,365.18,365.18,0,0,1-51.85-41.08A368.62,368.62,0,0,1,65.56,478.33c-49-101-48.16-221.76-.19-323C82.31,119.65,105.1,86.55,132.29,56.76Z"/><path class="cls-1" d="M61.75,268.17A366.81,366.81,0,0,1,72.83,226.1a321,321,0,0,1,37.87-76.95,314.64,314.64,0,0,1,26-33.75C198.88,43.76,234.4,29,270.32,9.52c1.35-.85.82-2.37-.75-2.24-15,1.55-29.63,5.84-43.58,11.51A228.44,228.44,0,0,0,186,40a203.4,203.4,0,0,0-34.75,29,413.5,413.5,0,0,0-29.17,34.51,333,333,0,0,0-24.79,37.5,321.87,321.87,0,0,0-18.89,40.59,300.81,300.81,0,0,0-12.73,42.62,323.3,323.3,0,0,0-6.28,43.72C59.34,269,61.31,269.13,61.75,268.17Z"/><path class="cls-1" d="M734.5,302.41l-19,24.7c22.53-108.74-74.71-226.32-74.71-226.32l11.23,113.7s-25.44-111.7-54.59-134.25c-118-91.32-227-79.77-227-79.77,13.6,13.18,32.74,78.18,43.74,122.68,8.62,34.9,41.61,66.75,41.61,66.75l84.7,80.47-26.8,5S641,434.26,490.78,575.58a222.54,222.54,0,0,1-86.95,51.11,341,341,0,0,0,54-18.19c61-26.19,113.45-73.17,139.65-133.95,27.22-60,28.48-130.51,8.83-194.13A361.07,361.07,0,0,0,588,233.74c-7.14-15.14-14.28-30.54-23.49-44.78a382.31,382.31,0,0,0-66.7-76.76c26.09,21.9,50.72,45.93,71.36,73.49,10.37,13.68,20.89,27.55,29.15,42.83a316.66,316.66,0,0,1,37.62,150.72,255.23,255.23,0,0,1-83.56,187.84,279.54,279.54,0,0,1-69.66,46.62c5.69-1.89,11.52-3.94,17.52-6.19,0,0-7.47,3.35-21.21,7.9l-.79.36C680.8,552.53,754.14,356.4,734.5,302.41Z"/><path class="cls-2" d="M233,218.12c-21.51,10.78-51.86,79.12-51.86,79.12l21.5-71.41s-77.08,63.07-76.34,135.56l-9-18.2c-19.37,32.11,2.92,167,124.71,233l-.47-.33c-8.22-4.64-12.58-7.73-12.58-7.73,3.55,2.2,7,4.24,10.44,6.17a182.47,182.47,0,0,1-38.76-38.63A166.6,166.6,0,0,1,170.71,404.8,206.82,206.82,0,0,1,213.77,313c7.22-8.75,15.7-16.31,24.07-23.77,16.68-15.05,35.48-27.35,55-38.09a249.75,249.75,0,0,0-52.39,40.77c-7.68,8-14.2,16.93-20.67,25.73a235.37,235.37,0,0,0-17.6,27.59c-20.6,38.28-28.67,83.62-18.78,125.47,9.13,42.22,36.79,78.91,72.59,103.37a222.82,222.82,0,0,0,32.29,18.45A145.16,145.16,0,0,1,239,548.83c-78.42-109.42,23.1-195.18,23.1-195.18l-16.53-6.57,64.37-40.89S335.05,290,345,268.68c12.65-27.12,33.09-66.35,43.46-73.08C388.43,195.6,320.05,174.48,233,218.12Z"/><polygon class="cls-3" points="896.88 349.73 941.82 349.73 941.82 144.67 896.88 150.41 896.88 349.73"/><path class="cls-3" d="M919.52,102.44a17.61,17.61,0,0,1-4.73-12.5,10.24,10.24,0,0,1,3.88-8.28q3.89-3.21,10.31-3.21,8.44,0,21.28,5.07V60.89a73,73,0,0,0-29-6.42q-13.86,0-23,8.61a28.3,28.3,0,0,0-9.12,21.45,39.51,39.51,0,0,0,4,17.91H877.63v25.67h79l5.74-25.67Z"/><polygon class="cls-3" points="1313.07 129.13 1340.44 155.48 1372.87 123.38 1340.1 91.29 1313.07 117.64 1285.71 91.29 1253.62 123.38 1286.38 155.48 1313.07 129.13"/><path class="cls-3" d="M1315.44,179.13q-35.14,0-57.77,22.29T1235,259.19q0,19.26,11.49,43.24H1092.15q-14.19,0-24.16-6.59t-12-20.43V179.8l-44.6,5.41.34,154.38q0,45.95-51.69,46l3.38,36.82q47.3,0,69.93-19.09t22.64-62v-6.42q13.17,14.88,36.15,14.87h208.09q44.58,0,70.43-24.49t25.85-66.05q0-34.45-23.14-57.26T1315.44,179.13ZM1338.07,291q-13.52,11.49-36.82,11.48h-12.84q-12.17-22.29-12.16-41.55a37.93,37.93,0,0,1,11.15-27.36,36.25,36.25,0,0,1,27-11.49q15.88,0,26.52,10.64t10.65,26.86Q1351.59,279.47,1338.07,291Z"/><polygon class="cls-3" points="1478.27 103.11 1433.34 108.86 1433.34 349.73 1478.27 349.73 1478.27 103.11"/><path class="cls-3" d="M877.63,608.1V476.57L911.54,473V608.1Z"/><path class="cls-3" d="M1056.4,591.43l14.31,17.84-23.13,17.84-16.66-20.78a92,92,0,0,1-26.47,3.73c-47.24,0-72.13-31-72.13-68.61,0-37.24,24.89-68.61,72.13-68.61,47,0,71.94,31.37,71.94,68.61C1076.39,561.05,1069.53,578.89,1056.4,591.43Zm-42.93-9.6L1000.53,562l16.66-12.94L1035,567.52c4.31-7.06,6.47-15.88,6.47-26.07,0-24.11-12.15-41.36-37.24-41.36-24.9,0-37.25,17.25-37.25,41.36s12.35,41.36,37.25,41.36A44.09,44.09,0,0,0,1013.47,581.83Z"/><path class="cls-3" d="M1149.31,561.44h-18.23V608.1h-33.91V474.8H1157c34.11,0,51.36,14.31,51.36,43.32,0,18.62-9.8,31.76-25.68,37.83l31.95,50.58-34.89,3.53Zm4.9-27.44c13.33,0,19.4-5.29,19.4-15.88,0-10.78-6.07-15.88-19.4-15.88h-23.13V534Z"/><path class="cls-3" d="M1339.44,609.27l-14.5-34.3h-73.51l-13.92,33.13h-13.72l57-133.1,14.51-2.35,57.23,134.27Zm-83.11-45.87H1320l-32-75.27Z"/><path class="cls-3" d="M1477.64,609.27,1463.13,575h-73.51l-13.91,33.13H1362L1419,475l14.5-2.35,57.24,134.27Zm-83.12-45.87h63.71l-32-75.27Z"/></g></g></svg>