<?xml version="1.0" encoding="UTF-8"?>
<svg id="Layer_2" data-name="Layer 2" xmlns="http://www.w3.org/2000/svg" viewBox="0 0 1490.77 708.49">
    <defs>
        <style>
            .cls-1 {
            fill: #e63947;
            }

            .cls-2 {
            fill: #1c3557;
            }
        </style>
    </defs>
    <g id="Layer_1-2" data-name="Layer 1">
        <g>
            <g>
                <g>
                    <path class="cls-2" d="m132.29,56.76c1.13-1.24-.58-3.03-1.89-1.97-31.46,25.66-58.39,57.37-79.72,92.73C26.56,188.23,10.54,234.08,3.64,281.49c-6.54,47.42-4.35,96.31,7.33,143.16,5.74,23.44,14,46.26,24.22,68.16,10.3,21.86,22.74,42.7,36.96,62.25,14.32,19.47,30.46,37.58,48.15,54.03,17.78,16.34,37,31.11,57.52,43.79,41,25.39,86.88,42.77,134.16,50.59,47.27,7.95,95.78,6.36,141.92-4.11,40.25-9.4,78.73-25.47,112.71-47.79,1.41-.92.22-3.1-1.31-2.4-36.63,16.94-75.15,28.63-114.4,33.7-44.82,5.85-90.34,4.11-133.81-5.75-43.47-9.78-84.93-27.26-121.87-51.55-18.47-12.13-35.9-25.82-51.85-41.08-16.04-15.15-30.68-31.77-43.67-49.59-13.1-17.74-24.49-36.73-34.11-56.58-48.98-101.03-48.16-221.76-.18-322.96,16.93-35.72,39.73-68.82,66.91-98.61Z"/>
                    <path class="cls-2" d="m61.75,268.17c2.89-14.29,6.57-28.34,11.08-42.06,4.5-13.73,10.08-27.03,16.42-39.88,6.3-12.87,13.47-25.27,21.45-37.07,7.9-11.85,16.63-23.11,26.03-33.75C198.88,43.76,234.4,29.02,270.32,9.52c1.34-.85.82-2.37-.75-2.24-15,1.56-29.63,5.84-43.58,11.51-13.97,5.69-27.37,12.81-39.97,21.16-12.62,8.32-24.29,18.07-34.75,28.97-10.44,10.93-20.04,22.58-29.17,34.51-9.1,11.95-17.41,24.48-24.79,37.5-7.25,13.1-13.57,26.68-18.89,40.58-5.21,13.95-9.65,28.15-12.73,42.63-3.13,14.46-5.18,29.08-6.28,43.72-.07,1.11,1.91,1.27,2.34.31Z"/>
                </g>
                <path class="cls-2" d="m734.5,302.41l-18.96,24.7c22.52-108.74-74.71-226.33-74.71-226.33l11.23,113.7s-25.44-111.69-54.59-134.25C479.47-11.08,370.46.47,370.46.47c13.59,13.18,32.73,78.18,43.73,122.68,8.63,34.9,41.62,66.74,41.62,66.74l84.69,80.47-26.8,4.99s127.27,158.91-22.93,300.22c-29.91,28.14-61.19,43.14-86.95,51.11,18.51-4.57,36.58-10.64,53.99-18.19,61.04-26.19,113.45-73.17,139.65-133.94,27.21-59.99,28.48-130.52,8.83-194.14-4.85-15.99-11.26-31.46-18.3-46.67-7.14-15.14-14.28-30.54-23.48-44.78-18.61-28.27-41.09-54.24-66.7-76.76,26.09,21.9,50.72,45.93,71.35,73.49,10.37,13.68,20.9,27.54,29.15,42.83,8.35,15.21,15.07,31.31,20.76,47.75,11.32,32.92,17.15,67.87,16.86,102.97-.25,35.05-7.63,70.4-22.01,102.66-14.34,32.27-35.67,61.35-61.55,85.19-20.71,19.07-44.41,34.64-69.66,46.61,5.7-1.89,11.52-3.93,17.52-6.19,0,0-7.47,3.36-21.2,7.9-.26.12-.53.24-.79.36,202.56-63.24,275.9-259.37,256.26-313.35Z"/>
                <path class="cls-1" d="m232.98,218.12c-21.51,10.78-51.86,79.12-51.86,79.12l21.5-71.42s-77.08,63.08-76.34,135.57l-9.03-18.21c-19.37,32.11,2.92,166.97,124.7,232.97-.15-.11-.31-.22-.46-.33-8.23-4.64-12.59-7.73-12.59-7.73,3.56,2.2,7.03,4.24,10.44,6.17-14.67-10.85-27.89-23.8-38.75-38.63-13.58-18.52-23.58-39.84-28.7-62.31-5.15-22.47-5.43-46.05-1.17-68.53,4.23-22.52,12.37-44.17,23.76-63.83,5.72-9.81,12.04-19.28,19.31-27.97,7.21-8.75,15.7-16.31,24.06-23.76,16.69-15.06,35.49-27.35,54.96-38.09-19.24,11.2-36.91,25.01-52.39,40.77-7.69,7.96-14.2,16.93-20.68,25.73-6.42,8.86-12.48,17.96-17.6,27.59-20.6,38.28-28.66,83.61-18.78,125.46,9.14,42.23,36.79,78.92,72.59,103.37,10.2,7.03,21.01,13.19,32.29,18.45-15.5-8.35-33.65-21.9-49.26-43.68-78.42-109.42,23.1-195.19,23.1-195.19l-16.54-6.57,64.38-40.88s25.14-16.24,35.06-37.51c12.65-27.12,33.09-66.35,43.45-73.08,0,0-68.37-21.12-155.44,22.52Z"/>
            </g>
            <g>
                <g>
                    <polygon class="cls-2" points="896.89 349.73 941.82 349.73 941.82 144.67 896.89 150.41 896.89 349.73"/>
                    <path class="cls-2" d="m919.52,102.44c-3.16-3.38-4.73-7.54-4.73-12.5,0-3.38,1.29-6.13,3.88-8.28,2.59-2.14,6.02-3.21,10.3-3.21,5.63,0,12.72,1.69,21.28,5.07v-22.63c-9.91-4.28-19.59-6.42-29.05-6.42s-16.89,2.87-22.97,8.61c-6.08,5.74-9.12,12.9-9.12,21.45,0,6.54,1.35,12.5,4.05,17.9h-15.54v25.68h79.05l5.74-25.68h-42.9Z"/>
                    <polygon class="cls-2" points="1313.07 129.13 1340.44 155.48 1372.87 123.38 1340.1 91.29 1313.07 117.64 1285.71 91.29 1253.61 123.38 1286.38 155.48 1313.07 129.13"/>
                    <path class="cls-2" d="m1315.44,179.13c-23.43,0-42.68,7.43-57.77,22.3-15.09,14.86-22.64,34.12-22.64,57.77,0,12.84,3.83,27.25,11.49,43.24h-154.04c-.06,0-.11,0-.17.01-.06,0-.11-.01-.17-.01-9.46,0-17.51-2.2-24.16-6.59-6.65-4.39-10.64-11.2-11.99-20.44v-95.61l-44.59,5.41.34,154.39c0,30.63-17.23,45.94-51.69,45.94l3.38,36.82c31.53,0,54.84-6.37,69.93-19.09,15.09-12.73,22.63-33.39,22.63-61.99v-6.42c8.78,9.91,20.83,14.86,36.15,14.86.06,0,.11,0,.17-.01.06,0,.11.01.17.01h207.75c29.73,0,53.21-8.16,70.44-24.49,17.23-16.33,25.84-38.34,25.84-66.05,0-22.97-7.72-42.06-23.14-57.26-15.43-15.2-34.74-22.8-57.94-22.8Zm22.63,111.82c-9.01,7.66-21.28,11.49-36.82,11.49h-12.84c-8.11-14.86-12.16-28.72-12.16-41.55,0-10.58,3.72-19.7,11.15-27.36,7.43-7.65,16.44-11.49,27.03-11.49s19.43,3.55,26.52,10.64c7.09,7.09,10.64,16.05,10.64,26.86,0,13.29-4.51,23.76-13.51,31.42Z"/>
                    <polygon class="cls-2" points="1478.27 103.11 1433.34 108.86 1433.34 349.73 1478.27 349.73 1478.27 103.11"/>
                </g>
                <g>
                    <path class="cls-2" d="m877.63,608.1v-131.53l33.91-3.53v135.06h-33.91Z"/>
                    <path class="cls-2" d="m1056.4,591.43l14.31,17.84-23.13,17.84-16.66-20.78c-7.84,2.35-16.66,3.72-26.46,3.72-47.24,0-72.14-30.97-72.14-68.61s24.89-68.61,72.14-68.61,71.94,31.36,71.94,68.61c0,19.6-6.86,37.44-19.99,49.99Zm-42.93-9.61l-12.94-19.8,16.66-12.94,17.84,18.43c4.31-7.06,6.47-15.88,6.47-26.07,0-24.11-12.15-41.36-37.24-41.36s-37.24,17.25-37.24,41.36,12.35,41.36,37.24,41.36c3.33,0,6.47-.39,9.21-.98Z"/>
                    <path class="cls-2" d="m1149.31,561.44h-18.23v46.65h-33.91v-133.29h59.79c34.11,0,51.36,14.31,51.36,43.32,0,18.62-9.8,31.76-25.68,37.83l31.95,50.57-34.89,3.53-30.38-48.61Zm4.9-27.44c13.33,0,19.41-5.29,19.41-15.88s-6.08-15.88-19.41-15.88h-23.13v31.76h23.13Z"/>
                    <path class="cls-2" d="m1339.44,609.27l-14.51-34.3h-73.51l-13.92,33.13h-13.72l57.04-133.1,14.51-2.35,57.24,134.27-13.13,2.35Zm-83.11-45.87h63.71l-31.95-75.27-31.75,75.27Z"/>
                    <path class="cls-2" d="m1477.64,609.27l-14.51-34.3h-73.51l-13.92,33.13h-13.72l57.04-133.1,14.51-2.35,57.24,134.27-13.13,2.35Zm-83.11-45.87h63.71l-31.95-75.27-31.75,75.27Z"/>
                </g>
            </g>
        </g>
    </g>
</svg>