<?xml version="1.0" encoding="utf-8"?>
<!-- Generator: Adobe Illustrator 27.1.1, SVG Export Plug-In . SVG Version: 6.00 Build 0)  -->
<svg version="1.1" id="Layer_1" xmlns="http://www.w3.org/2000/svg" xmlns:xlink="http://www.w3.org/1999/xlink" x="0px" y="0px"
	 viewBox="0 0 784.8 604.8" style="enable-background:new 0 0 784.8 604.8;" xml:space="preserve">
<style type="text/css">
	.st0{fill:#2A2B2B;}
	.st1{fill:url(#SVGID_1_);}
	.st2{fill:url(#SVGID_00000019645438831245906240000007068617877961070216_);}
</style>
<g>
	<g>
		<g>
			<g>
				<path class="st0" d="M56.5,450.4c-1.8-2.1-3.8-3.7-6.1-4.9c-2.6,3.8-3.6,6.1-3.2,6.9c0.1,0.6,1.2,1.5,3.1,2.7
					c1.8,1.1,3,1.7,3.5,1.8c0.6,0,1.3-1,2-2.9C56.5,452.2,56.7,451,56.5,450.4L56.5,450.4z M64.3,443.2c-1.6-1.2-2.6-1.8-3-1.8
					c-0.4,0.2-1.1,1.1-2.1,2.9c-0.8,1.6-1.4,2.9-1.7,3.9c0.5,0.9,1.4,1.8,2.7,2.9c1.4,1.3,2.6,1.9,3.5,2c0.9-0.1,1.8-1.2,2.6-3.3
					c0.6-1.6,0.9-2.8,0.9-3.4C67,445.6,66.1,444.5,64.3,443.2L64.3,443.2z"/>
				<path class="st0" d="M115.2,499.9c-2-2.2-4.1-3.8-6.2-4.8c-0.3,0.3-0.9,1.4-1.8,3.3c-1.1,2-1.5,3.2-1.4,3.5
					c0.1,0.6,1.1,1.5,3,2.7s3.1,1.8,3.7,1.8s1.2-0.9,1.9-2.8C115.1,501.7,115.4,500.5,115.2,499.9L115.2,499.9z M121.8,493.4
					c-1.6-1.2-2.6-1.8-2.9-1.8c-1,0.5-2.3,2.8-3.8,6.8c0.5,0.9,1.4,1.9,2.7,3c1.4,1.2,2.6,1.9,3.4,2c0.9-0.1,1.8-1.2,2.6-3.4
					c0.6-1.7,0.9-2.8,0.9-3.4C124.6,495.8,123.6,494.7,121.8,493.4L121.8,493.4z"/>
				<path class="st0" d="M385.6,507.6c-0.5-0.2-1.2-0.2-2,0c-17.7,3.2-27.4,5.2-29.2,6c-0.8,0.3-1.7,1-2.8,1.9s-1.8,1.7-2,2.2
					c-0.1,0.2-0.1,0.4,0.1,0.4c0.2,0.1,0.6,0,1.1-0.2c5.9-1.8,13-3.4,21.2-4.6c6.2-1,9.3-1.6,9.3-1.9c2.7-1.5,4.2-2.6,4.5-3.3
					C386,508,386,507.8,385.6,507.6L385.6,507.6z"/>
				<path class="st0" d="M163.1,464.1c-1-2.2-2-3.2-3.1-3.2c-0.1,0-0.3,0-0.4,0.1c-1.2,2.6-2,4.6-2.4,6.2c0.2,1.4,0.8,2.8,1.7,4.1
					c1.2,1.6,2,3.1,2.4,4.3c-0.3,1.8-2.2,2.7-5.5,2.7c-1.5,0-3.4-0.9-5.7-2.6c-2.2-1.6-3.3-2.9-3.4-3.8c0-0.5,0-1.2,0.1-2
					s0.1-1.3,0.1-1.5c-0.3-0.2-0.6-0.3-0.9-0.3c-0.8,0-1.8,1.2-3.2,3.6c-1.4,2.7-2.9,4.4-4.3,5c-2.3,1-4.7,1.5-7.3,1.5H92.6
					c-5.7-0.7-10-4.4-12.9-11.2c-1.5-3.6-2.9-9.4-4.2-17.3c-0.3-1.9-0.7-2.8-1.1-2.8c-0.5,0-0.9,0.8-1.3,2.5
					c-0.2,0.9-0.2,2.2-0.2,4.1c0.1,1.8,0,3.2-0.2,4c-4.8,2.5-7.5,4-8.2,4.6c-4.9,3.7-7.4,8.1-7.4,13c0,2.7,2,4,6.1,3.9
					c3.7-0.1,6.5-0.9,8.4-2.5c0.5-0.4,1.9-2.1,4.1-4.9c1.8,5.7,3.8,9.6,5.9,11.8c2.6,2.7,6.3,4,11.1,4h38.5c3.4,0,6.2-1.2,8.6-3.7
					c0.2-0.3,1.5-2.1,3.9-5.5c1.6,3.2,2.6,5,3.2,5.4c1.4,1.1,3.1,2.1,5.2,2.9c1.7,0.6,2.9,0.9,3.6,0.9c4.1,0,6.7-1,7.7-3.1
					c1.4-3,2.1-6.3,2.1-9.8C165.1,470,164.3,466.6,163.1,464.1L163.1,464.1z M70.2,469.1c-1.3,0.3-3.1,0.3-5.5,0
					c1.8-1.4,3.6-2.8,5.3-4.1c1.6-1.4,2.7-2.8,3.3-4.2c0.6,2.9,1.1,5.1,1.5,6.8C72.9,468.4,71.4,468.9,70.2,469.1z"/>
				<path class="st0" d="M214.6,422.4c-0.4-0.2-0.9-0.2-1.6,0.1c-3.1,1.2-8.4,3.6-15.8,7.1c-9.3,4.4-16,8-20.2,10.8
					c-1.4,0.9-3,2.5-4.7,4.5c-1.7,2.1-2.6,3.4-2.6,4.1c0,0.2,0.1,0.3,0.2,0.3c0.3,0,0.7-0.2,1.3-0.6c6.3-4.1,14.8-8.6,25.5-13.6
					c4.7-2.1,9.4-4.2,14.1-6.4c1.7-2.3,2.9-4.1,3.9-5.4C215.1,422.9,215,422.6,214.6,422.4L214.6,422.4z"/>
				<path class="st0" d="M241.1,471.6c0,1.2-0.1,2.4-0.2,3.5c-0.5,6.6-3.5,10.1-8.8,10.5c0,0,0,0-0.1,0l0,0c-4,0-7.1-0.7-9.4-2
					c-1-0.6-3.2-2.4-6.5-5.4c-4.2,3-6.7,4.7-7.7,5.3c-2.8,1.5-5.9,2.3-9.1,2.3h-3.4c-7,0-14,3.3-21.2,10.2
					c-5.6,6.3-11.2,12.6-16.8,19c-6.1,6.8-11.2,10.1-15.5,10c-1.1,0-2.1-0.3-2.9-0.7c-2-1.1-3.3-3.3-4-6.7c-0.3-1.7-0.5-3.7-0.5-6.1
					c0-3.2,0.9-7.3,2.7-12.3c1.7-4.7,3.6-8.7,5.8-12c0.5-0.7,0.9-1.1,1.4-1.1s0.8,0.3,0.8,0.9c0,0.2-0.1,0.4-0.2,0.7
					c-3,5.7-4.7,11.7-5.1,17.8c-0.1,2.1,0.2,4,1,5.7c0.9,1.9,2.3,2.8,4,2.8c2.6,0,5.7-1.9,9.2-5.7c3.8-4.3,7.5-8.6,11.3-13
					c5.5-5.9,11.1-10.6,16.8-14c1.5-0.9,4-1.8,7.5-2.8c3.8-1.1,6.8-1.6,9-1.6c5.9,0,10.3-0.9,13.3-2.7c-2.2-2.3-3.9-3.5-5-3.5
					c-0.8,0-2.4,0.4-4.6,1.1c1.1-4.2,2.1-7.2,3.2-8.9c1.9-2.1,4.9-3.2,9.1-3.2c2,0,4.4,0.5,7.3,1.6c3.9,1.4,5.9,3.2,5.9,5.3
					c0,1.4-0.5,2.7-1.6,4c-1.1,1.1-2.2,2.2-3.3,3.3c2.6,1.8,5.5,2.8,8.6,3c0,0,2.8-0.5,3.9-1.1c1.2-0.7,1.8-1.5,1.8-2.4
					c-1.8-8.4-4.1-20.3-6.8-35.9c-0.5-1.9-1.2-3.3-2.1-4.2c0,0,0.3-1.9,0.9-5.6c0.5-3.1,1.1-4.7,1.8-4.7c0.3,0,0.5,0.2,0.9,0.6
					s0.6,1,0.7,1.8c0.1,0.8,0.4,1.4,0.7,1.8s1,1,2.1,1.6c0.9,0.6,1.4,0.9,1.4,1c0,1.1-0.1,1.9-0.2,2.7c-0.3,1.4-0.9,3.4-1.9,5.8
					c1.2,5.4,2.4,10.8,3.6,16.2C240.4,461.2,241.1,467,241.1,471.6L241.1,471.6z"/>
				<path class="st0" d="M232.1,485.5L232.1,485.5L232.1,485.5L232.1,485.5z"/>
				<path class="st0" d="M260.5,479c-0.5-6.7-1.5-16.1-3-28.3c-1.8-14.1-2.7-21.5-2.8-22.2c-0.5-4-1.1-6.1-1.6-6.1
					c-0.2,0-0.5,0.4-0.9,1.1c-1.1,2.1-1.6,4.8-1.6,8.1c0,0.8,0.3,3.6,1,8.3c0.9,6.5,1.6,11.9,2.1,16.3c0.8,7.2,1.5,14.3,2.3,21.5
					c0.7,5.8,1.5,8.7,2.3,8.7c0.4,0,0.8-0.4,1.1-1.3C260.4,483.4,260.7,481.3,260.5,479L260.5,479z"/>
				<path class="st0" d="M328.7,449.4c-1.3-0.3-2.4-0.5-3.2-0.5c0.5-2.1,0.7-3.8,0.7-5.1c0-3-1.2-4.6-3.6-4.6
					c-0.9,0-1.9,1.2-3.1,3.7c-1,2.1-1.5,3.6-1.5,4.3c0,1.6,0.7,2.7,2,3.5c1,0.4,2.1,0.8,3.1,1.2c-0.6,3.6-2.8,7.1-6.5,10.6
					c-2.2,1.8-4.5,3.7-6.7,5.5c0,0.1-0.1,0.2-0.1,0.2c0,0.3,0.6,0.4,1.8,0.2c1.2-0.2,2.2-0.6,2.9-1.2c3.3-2.9,5.8-5.9,7.3-9
					c0.9-2,1.8-4,2.7-6c0.7,0.1,1.4,0.3,2.1,0.5c0.4,0.1,0.8,0,1.2-0.3C329.1,451.8,329.4,450.8,328.7,449.4L328.7,449.4z
					 M319.5,445.6c0.7-1.8,1.5-2.7,2.4-2.7c0.9,1.9,1.8,3.8,2.6,5.8C322.1,447.7,320.4,446.7,319.5,445.6z M327.2,426.3
					c-0.4-2.9-1.4-4.4-3.1-4.4c-4,0-7.9,3.6-11.6,10.7c-3.1,6-4.9,11.3-5.3,15.9c-0.2,1.8,0,3.4,0.7,4.9c0.8,1.8,2,2.8,3.6,2.8
					s3.2-0.5,4.4-1.4c1.2-1,1.8-2,1.8-3.2c0-0.9-0.1-1.3-0.5-1.3c0,0-0.4,0.5-1.3,1.4c-0.9,1-2.1,1.4-3.4,1.4
					c-2.6,0-3.9-1.1-3.9-3.2c0-2.8,1.8-7.1,5.2-13c3.6-6.2,6.5-9.2,8.6-9.2c1.4,0,2.2,0.9,2.2,2.9c0,1.4-0.2,2.9-0.7,4.5
					c-0.4,1.6-0.7,2.4-0.7,2.5s0.1,0.2,0.2,0.3c0.1,0,0.3-0.1,0.5-0.2c1-0.5,1.9-2.2,2.6-5.2C327.5,429.7,327.7,427.6,327.2,426.3
					L327.2,426.3z"/>
				<path class="st0" d="M352.2,433.8c-1.3-0.6-2.7-1.2-4-1.9c-0.2-0.1-0.5-0.2-0.7-0.2c-0.7,0-1.4,0.8-2.1,2.3
					c-0.9,2.3-1.5,3.6-1.8,3.9c-0.2,0.3-0.3,0.6-0.3,0.9c0,0.9,1,1.8,3.1,2.7c1.7,0.7,3.2,1.1,4.4,1.1c0.2,0,0.3,0,0.4-0.1
					c0.7-0.6,1.6-2.7,2.7-6c0.1-0.2,0.1-0.4,0.1-0.6C354,435.2,353.4,434.5,352.2,433.8L352.2,433.8z"/>
				<path class="st0" d="M372.5,498.2c-2-2.2-4.1-3.8-6.1-4.8c-0.3,0.3-0.9,1.4-1.9,3.3c-1.1,2-1.5,3.2-1.4,3.5
					c0.1,0.6,1.1,1.5,3,2.7s3.1,1.8,3.7,1.8s1.2-0.9,1.9-2.8C372.2,500,372.6,498.8,372.5,498.2L372.5,498.2z M379,491.7
					c-1.6-1.2-2.6-1.8-2.9-1.8c-1,0.5-2.3,2.8-3.8,6.8c0.5,0.9,1.4,1.9,2.7,3c1.4,1.2,2.6,1.9,3.4,2c0.9-0.1,1.8-1.2,2.6-3.4
					c0.6-1.7,0.9-2.8,0.9-3.4C381.7,494.1,380.7,493,379,491.7L379,491.7z"/>
				<path class="st0" d="M431.7,422c0-0.1-0.1-0.1-0.2-0.2c-0.4-0.2-0.9-0.2-1.6,0.1c-1.3,0.5-3,1.2-5.1,2.1
					c-2.9,1.3-6.4,2.9-10.6,4.9c-9.3,4.4-16,8-20.2,10.8c-1.4,0.9-3,2.5-4.7,4.5c-1.7,2.1-2.6,3.4-2.6,4.1c0,0.2,0.1,0.3,0.2,0.3
					c0.3,0,0.7-0.2,1.3-0.6c6.3-4.1,14.8-8.6,25.5-13.6c4.1-1.8,8.2-3.7,12.2-5.5c0.6-0.3,1.2-0.6,1.8-0.8c1.7-2.3,3-4.1,3.9-5.4
					c0.1-0.2,0.2-0.3,0.1-0.4C431.9,422.2,431.9,422.1,431.7,422L431.7,422z"/>
				<path class="st0" d="M418.4,454.2c-1.3-0.6-2.7-1.2-4-1.8c-0.2-0.1-0.5-0.2-0.8-0.2c-0.7,0-1.4,0.8-2.1,2.3
					c-1,2.3-1.6,3.7-1.8,4s-0.3,0.6-0.3,0.8c0,0.9,1.1,1.8,3.2,2.6c1.8,0.7,3.3,1.1,4.4,1.1c0.2,0,0.4,0,0.5-0.1
					c0.4-0.4,0.8-1,1.2-1.8c0.1-0.4,0.6-1.8,1.4-4.1c0.1-0.2,0.1-0.5,0.1-0.6C420.2,455.5,419.6,454.8,418.4,454.2L418.4,454.2z"/>
				<path class="st0" d="M474.9,432.3c-0.1,0-0.1-0.1-0.2-0.1v-0.1c0.5-1.4,0.7-3.1,0.7-5c0-3.1-0.9-4.6-2.8-4.6
					c-1.3,0-2.8,1.2-4.4,3.5c-1.4,2.1-2.2,3.8-2.3,5.1c-0.1,1.5,0.4,2.5,1.6,3c0.1,0,0.2,0.1,0.3,0.1c1.1,0.4,2.3,0.9,3.5,1.4
					c-0.6,1.2-1.4,2.3-2.3,3.5c-2.9,3.7-7.5,7.4-13.7,11.3c-1,0.6-1.5,1.1-1.5,1.4c0,0.2,0.2,0.3,0.6,0.3c1.7,0,4.1-1.1,7.1-3.3
					c3.2-2.3,5.6-4.2,7-5.7c1.2-1.2,2.9-3.4,5.1-6.6c1.2,0.6,2.1,1.1,2.9,1.6c0.7-0.6,1.1-1.6,1.2-3.3
					C477.7,434.2,476.7,433.4,474.9,432.3L474.9,432.3z M469.4,430c-0.4-0.2-0.5-0.7-0.4-1.5s0.4-1.2,0.8-1.1
					c1.6,0.3,2.5,0.9,2.9,1.6c0.2,0.4,0.3,1.2,0.3,2.6C470.9,430.7,469.7,430.2,469.4,430L469.4,430z"/>
				<path class="st0" d="M474.7,486.1c-1.3-0.6-2.7-1.2-4-1.9c-0.2-0.1-0.5-0.2-0.8-0.2c-0.7,0-1.4,0.8-2.1,2.4
					c-1,2.3-1.6,3.6-1.9,4.1c-0.2,0.3-0.3,0.5-0.3,0.8c0,0.9,1.1,1.8,3.2,2.7c1.8,0.7,3.3,1.1,4.4,1.1c0.2,0,0.3,0,0.4-0.1
					c0.5-0.4,0.9-0.9,1.3-1.8c0.2-0.5,0.7-1.9,1.4-4.1c0.1-0.2,0.1-0.4,0.1-0.7C476.4,487.5,475.7,486.8,474.7,486.1L474.7,486.1z"
					/>
				<path class="st0" d="M489.9,466.6c-0.2-0.1-0.6-0.1-1.4-0.1c-3.1,0.2-7.9-0.5-14.4-2.1c-6.2-1.6-10.9-3.2-14-4.8
					c-2.3-1.2-4.6-2.4-6.9-3.6c-1.3-0.6-3-0.9-5.1-1.1c-1.9,0.1-4.4,1.1-7.5,3.2c-1.9,3.3-3.1,6.1-3.8,8.2c-0.2,0.5-0.3,1-0.2,1.3
					s0.3,0.5,0.7,0.4c2.9-0.3,5.4-0.8,7.6-1.6c1.7-0.6,3.1-0.9,4-0.9c1.1,0,2.6,0.5,4.8,1.3c2.6,1,5.2,1.8,7.9,2.3
					c-2.4,1.4-5.9,2.8-10.6,4.3c-6.7,2.1-12.9,3.2-18.5,3.2c-1.1,0-3-0.6-5.6-1.9c-2.6-1.2-4.4-1.9-5.5-1.9c-0.3,0-0.6,0.1-0.9,0.1
					c-0.8,0.2-2,0.8-3.6,1.7c-1.4,0.7-3.5,1.4-6.3,2c-1.5,0-3.4-0.9-5.6-2.6c-2.2-1.6-3.3-2.9-3.4-3.8c0-0.5,0-1.2,0.1-2
					s0.1-1.3,0.1-1.5c-0.3-0.2-0.6-0.3-0.9-0.3c-0.8,0-1.9,1.2-3.1,3.6c-1.4,2.7-2.9,4.4-4.4,5c-2.3,1-4.7,1.5-7.3,1.5h-25.7
					c-3.4,0-5.6-0.3-6.7-0.9c2-2.6,3.2-4.9,3.6-7c0.1-0.2,0.2-2.1,0.3-5.7c0.1-3.5-0.4-6.3-1.6-8.4c-1-1.7-2.1-2.6-3.4-2.6
					c-2,0-4.4,1.8-7.1,5.2c-2.7,3.5-4.4,7.1-5.2,10.9c-0.2,1-0.3,1.9-0.3,2.7c0,0.9,0.3,2.4,1,4.4c-9.9,4.3-21.8,6.4-35.7,6.4
					c-8.6,0-15.2-1.1-20-3.3s-7.2-5.3-7.2-9.1c0-1.5,0.6-3.9,1.7-7.1c0.4-1,0.5-1.7,0.5-2.2c0-0.3-0.1-0.4-0.3-0.4
					c-0.4,0-1.1,0.6-2.1,1.9s-2,3.1-2.9,5.5s-1.4,4.4-1.4,5.9c0,6.1,3,10.8,9,14.3c5.2,3,11.3,4.6,18.3,4.6
					c12.7,0,23.4-1.4,32.1-4.2c3.6-1.1,8-3.1,13.2-6c0.9,0.6,2.7,1.3,5.2,2.1c3.4,1.2,6.3,1.8,8.7,1.8h25.7c3.4,0,6.2-1.2,8.6-3.8
					c0.3-0.3,1.5-2.1,3.9-5.5c1.6,3.2,2.6,5,3.2,5.4c1.4,1.1,3.1,2.1,5.2,2.9c1.7,0.6,2.9,0.9,3.6,0.9v0.1c2,0,4.1-0.7,6.3-2.1
					s3.8-2,4.7-2c1.1,0,2.8,0.7,5.3,2c2.4,1.3,4.3,2,5.6,2c4.9,0,12.3-2.1,22.1-6.2s15.9-6.2,18.4-6.2c1.4,0,3.4,0.1,5.9,0.4
					c2.6,0.3,4.4,0.4,5.3,0.4c1,0,1.9-0.1,2.5-0.3c0.6-0.2,1.1-0.7,1.3-1.4c0.6-1.5,1.1-3,1.6-4.5c0-0.1,0.1-0.3,0.2-0.6
					C490.1,466.9,490.1,466.7,489.9,466.6L489.9,466.6z M350.6,471.4c-0.4,0.3-1.4,0.8-3.1,1.6c-2.5-1.6-3.7-3-3.7-4.2
					c2.3-4.3,4.5-6.4,6.8-6.4c0.2,0,0.4,0,0.7,0c1.4,1.9,2.1,4.1,2.1,6.5C352.9,469.7,351.9,470.6,350.6,471.4z"/>
				<g>
					<path class="st0" d="M504.7,450.1c-1.8-2.1-3.8-3.7-6.1-4.9c-2.6,3.8-3.6,6.1-3.2,6.9c0.1,0.6,1.2,1.5,3.1,2.7
						c1.8,1.1,2.9,1.7,3.5,1.8c0.6,0,1.3-1,2-2.9C504.7,451.9,505,450.7,504.7,450.1L504.7,450.1z M512.6,442.9
						c-1.6-1.2-2.6-1.8-3-1.8c-0.4,0.2-1.1,1.1-2.1,2.9c-0.8,1.6-1.4,2.9-1.7,3.9c0.5,0.9,1.4,1.8,2.7,2.9c1.4,1.3,2.6,1.9,3.5,2
						c0.9-0.1,1.8-1.2,2.6-3.3c0.6-1.6,0.9-2.8,0.9-3.4C515.2,445.3,514.2,444.2,512.6,442.9z"/>
					<path class="st0" d="M582.2,421.8c-0.4-0.2-0.9-0.2-1.6,0.1c-3.1,1.2-8.4,3.6-15.8,7.1c-9.3,4.4-16,8-20.2,10.8
						c-1.4,0.9-3,2.5-4.7,4.5c-1.7,2.1-2.6,3.4-2.6,4.1c0,0.2,0.1,0.3,0.2,0.3c0.3,0,0.7-0.2,1.3-0.6c6.3-4.1,14.8-8.6,25.5-13.6
						c4.7-2.1,9.4-4.2,14.1-6.4c1.7-2.3,2.9-4.1,3.9-5.4C582.6,422.3,582.6,422.1,582.2,421.8L582.2,421.8z"/>
					<path class="st0" d="M593.2,459.1c-0.6-1.7-1.2-2.6-1.6-2.6c-0.2,0-0.4,0.2-0.5,0.8c-0.3,1.5-0.8,3.1-1.5,4.8
						c-0.6,1.4-0.9,2.4-0.9,2.9c0,0.3,0.1,0.6,0.4,0.9s0.4,1.1,0.4,2.4c-1.1,0.4-1.8,0.7-2.2,0.9c-2.1-0.3-3.4-0.5-3.7-0.7
						c-0.7-0.3-1.7-1.1-3-2.3c0-0.1,0.2-1.1,0.7-2.9s0.7-3.1,0.7-3.9c0-0.6-0.1-0.9-0.4-0.9c-0.4,0-1.2,0.6-2.2,1.8
						c-0.9,2.3-1.9,4.6-2.8,7c-2,3-6.2,4.6-12.7,4.5c-1.8,0-3.2-0.1-4.1-0.3c0.6-2.3,1.1-4.1,1.5-5.3c0.4-2.3,0.3-3.5-0.2-3.5
						c-0.3,0-0.6,0.4-1.1,1.2c-0.4,1.2-0.9,2.3-1.2,3.5c-0.8,1.5-2.4,2.9-4.8,4.1c-3.7,1.8-9,2.9-16,3c-5.7-0.7-10-4.4-12.9-11.2
						c-1.5-3.6-2.9-9.4-4.2-17.3c-0.3-1.9-0.7-2.8-1.1-2.8c-0.5,0-0.9,0.8-1.3,2.5c-0.2,0.9-0.2,2.2-0.2,4.1c0.1,1.8,0,3.2-0.2,4
						c-4.8,2.5-7.5,4-8.2,4.6c-4.9,3.7-7.4,8.1-7.4,13c0,2.7,2.1,4,6.1,3.9c3.6-0.1,6.4-0.9,8.4-2.5c0.5-0.4,1.9-2,4.1-4.9
						c1.9,5.7,3.8,9.6,5.9,11.8c2.6,2.7,6.3,4,11.1,4c3.5-0.1,6.7-0.5,9.7-1.1c2.6-0.5,5.1-1.2,7.3-2.1c2.4,0.9,5.1,1.4,8,1.4
						c3.4,0,6.4-0.6,9-1.8c2.8-1.2,4.7-2.8,5.5-4.8c1.3,0.8,2.6,1.6,3.9,2.3c1.3,0.8,2.7,1.2,4,1.1c2.9-0.1,5.3-1.9,7-5.4
						c1.4-2.9,2.1-6.2,2.2-9.9C594.2,462.2,594,460.8,593.2,459.1L593.2,459.1z M515.2,465.5c-1.3,0.3-3.1,0.3-5.5,0
						c1.8-1.4,3.6-2.8,5.3-4.1c1.6-1.4,2.7-2.8,3.2-4.2c0.6,2.9,1.1,5.1,1.5,6.8C517.9,464.8,516.4,465.3,515.2,465.5L515.2,465.5z"
						/>
					<path class="st0" d="M639.1,421.8c-0.4-0.2-0.9-0.2-1.6,0.1c-3.1,1.2-8.4,3.6-15.8,7.1c-9.3,4.4-16,8-20.2,10.8
						c-1.4,0.9-3,2.5-4.7,4.5c-1.7,2.1-2.6,3.4-2.6,4.1c0,0.2,0.1,0.3,0.2,0.3c0.3,0,0.7-0.2,1.3-0.6c6.4-4.1,14.8-8.6,25.5-13.6
						c4.7-2.1,9.4-4.2,14.1-6.4c1.7-2.3,2.9-4.1,3.9-5.4C639.5,422.3,639.5,422.1,639.1,421.8L639.1,421.8z"/>
					<path class="st0" d="M652.8,460.1c-2-1.7-4.1-2.5-6.4-2.5c-2.1,0-4.9,0.9-8.4,2.9c-2.6,1.4-4.5,2.7-5.7,3.7
						c-4.5,3.9-10.6,10.9-18.2,20.8c-5.3,6.9-9.5,10.3-12.5,10.3c-1.5,0-2.6-0.8-3.4-2.5c-0.7-1.4-1-3.1-0.9-4.9
						c0.3-5.5,1.8-10.7,4.4-15.6c0.1-0.2,0.2-0.4,0.2-0.5c0-0.6-0.2-0.9-0.7-0.9c-0.4,0-0.8,0.3-1.2,1c-1.9,2.9-3.6,6.4-5.1,10.5
						c-1.6,4.4-2.4,8-2.4,10.8c0,7.8,2.2,11.7,6.6,11.8c3.7,0.1,8.1-3.1,13.1-9.4c4.6-5.9,9.1-11.9,13.6-17.8
						c5.9-6.4,11.9-9.6,18-9.6c3,0,6.2,1.4,9.7,4c0.1,0.1,0.3,0.1,0.4,0.1c1.5,0,2.2-1.8,2.2-5.5C656.1,464.2,655,461.9,652.8,460.1
						L652.8,460.1z"/>
					<path class="st0" d="M659.6,421.7c-1,0-1.9,0.7-2.9,2c-1.1,1.5-1.6,3.2-1.6,5c-2.1,3.2-3.2,6-3.2,8.5c0,3.8,1.7,5.7,5,5.7
						c4.9,0,7.4-4.3,7.4-13C664.2,424.4,662.7,421.7,659.6,421.7L659.6,421.7z M656.2,436.4c-1.3,0-1.9-0.7-1.9-2.1
						c0-0.9,0.6-2.6,1.9-5.1c0.6-0.2,1.2-0.2,1.8-0.2c2.6,0,4.1,1.5,4.6,4.6C660.1,435.5,658,436.4,656.2,436.4z"/>
					<path class="st0" d="M733.5,422.4c-0.4-0.2-0.9-0.2-1.6,0.1c-3.1,1.2-8.4,3.6-15.8,7.1c-9.3,4.4-16,8-20.2,10.8
						c-1.4,0.9-3,2.5-4.7,4.5c-1.7,2.1-2.6,3.4-2.6,4.1c0,0.2,0.1,0.3,0.2,0.3c0.3,0,0.7-0.2,1.3-0.6c6.3-4.1,14.8-8.6,25.5-13.6
						c4.7-2.1,9.4-4.2,14.1-6.4c1.7-2.3,3-4.1,3.9-5.4C734,422.9,733.9,422.6,733.5,422.4L733.5,422.4z"/>
					<path class="st0" d="M735.2,463c-1.2-2.9-3.1-4.3-5.6-4.2c-1.5,0-3,0.9-4.5,2.7c-1.5,1.8-2.6,3.9-3.4,6.3c-0.4,0.1-0.8,0.1-1,0
						c-0.2,0.2-2,2.1-5.2,5.9c-1.4,1.6-3.6,2.5-6.6,2.9h-25.7c-3.7-0.2-7.4-4-11.2-11.6c-2.2-5.3-4.5-10.7-6.8-16
						c-0.8-1.7-1.4-2.5-1.8-2.5c-0.5,0-0.8,0.9-0.9,2.6c-0.1,1.1-0.1,2.7,0,4.6c0.8,2,1.7,4.7,2.6,8.3c0.9,3.6,1.3,5.9,1.3,7.1
						c0,3.3-1.6,5.9-4.7,7.9c-2.8,1.8-6.2,2.7-10.1,2.7c-2.2,0-3.5-0.4-3.9-1.4c-0.2-0.4-0.3-2-0.3-4.8c0-0.6-0.2-0.8-0.5-0.8
						c-0.3,0.1-0.6,0.4-0.9,1c-1.6,3.2-2.3,6-2.2,8.3c0.1,1.9,0.8,3.6,2,5.1c1.3,1.5,2.8,2.2,4.5,2.3c6.3,0.2,11.1-1.8,14.5-5.7
						c2.8-3.3,4.2-7.5,4.2-12.6c0-0.6,0-1.1-0.1-1.7c2.1,4.6,3.7,7.9,5.1,9.7c2.9,4.3,5.9,6.4,9.2,6.4h25.7c3.1-0.6,5.3-2.1,6.6-4.4
						c1.9-3.4,3-5.3,3.6-5.8c1.8,1.5,4.4,2.6,7.8,3.3c1.4,0.3,3,0.5,4.7,0.6c1.2-0.5,2.3-1.7,3.3-3.6c1-2,1.5-3.8,1.5-5.4
						C736.5,467.6,736.1,465.1,735.2,463L735.2,463z M723.9,468.3c0.3-0.4,0.7-0.8,1-1.2c0.6-0.7,1.3-1,2.1-1.1
						c1.5-0.2,2.6,0.3,3.2,1.5c0.1,0.3,0.4,1.4,0.9,3.5C728.4,470.7,726.1,469.8,723.9,468.3z"/>
				</g>
				<path class="st0" d="M157.9,492.4c-1.1-0.5-2.1-1-3.2-1.5c-0.3-0.1-0.5-0.2-0.8-0.4c-0.2-0.1-0.5-0.2-0.8-0.2
					c-0.7,0-1.4,0.8-2.1,2.3c-1,2.3-1.6,3.7-1.8,4.1c-0.2,0.2-0.3,0.5-0.3,0.8c0,0.9,1,1.8,3.1,2.6c1.8,0.7,3.3,1.1,4.5,1.1
					c0.2,0,0.4,0,0.5-0.1c0.4-0.4,0.8-1,1.1-1.8c0.1-0.3,0.3-0.9,0.6-1.7c0.2-0.6,0.5-1.4,0.8-2.3c0.1-0.2,0.1-0.5,0.1-0.7
					C159.5,493.8,159,493.1,157.9,492.4L157.9,492.4z"/>
			</g>
			<path class="st0" d="M120.3,447.6c-0.2-1-0.4-1.5-0.7-1.5c-0.2,0-0.3,0.2-0.4,0.6c-0.3,1.2-0.6,2.5-0.8,3.7
				c-0.3,1.4-0.8,2.2-1.4,2.2c-0.7,0-1.4-0.4-2.2-1.1c-0.1-0.4,0-1,0.2-1.6s0.3-1,0.3-1.2c0-1.1-0.3-1.6-0.9-1.6
				c-0.2,0-0.6,1.2-1.4,3.5c-0.7,2.3-1.7,3.7-3,3.9c-1.6,0.3-2.4-0.3-2.4-1.8c0-0.3,0.1-1,0.4-2c0.2-0.8,0.2-1.4,0-1.9
				c-0.1-0.3-0.3-0.5-0.5-0.5c-0.4,0-1,0.9-1.6,2.6s-1,2.9-1,3.6c0,4.1,1.1,6.1,3.3,6.1c1.1,0,2.1-0.4,2.9-1.2
				c0.6-0.7,1.2-1.4,1.8-2.1c1,0.8,1.8,1.1,2.4,1.1c0.8,0,1.7-0.4,2.6-1.3c1.3-1.3,2.2-3.5,2.6-6.5
				C120.6,449.6,120.5,448.6,120.3,447.6L120.3,447.6z M134.7,427.4c-0.4-0.2-0.9-0.2-1.6,0.1c-3.2,1.2-8.4,3.6-15.8,7.1
				c-9.3,4.4-16,8-20.2,10.8c-1.4,0.9-3,2.5-4.7,4.5c-1.7,2.1-2.6,3.4-2.6,4.1c0,0.2,0.1,0.3,0.2,0.3c0.3,0,0.7-0.2,1.3-0.6
				c6.3-4.1,14.8-8.6,25.5-13.6c4.7-2.1,9.4-4.2,14.1-6.3c1.7-2.3,2.9-4.1,3.9-5.4C135.2,427.8,135.1,427.6,134.7,427.4L134.7,427.4
				z"/>
		</g>
		<g>
			<path class="st0" d="M68.9,573.5c-2.9,0-4.5-1.5-4.9-4.4c-0.4-2.4-0.6-7-0.6-13.8c0-1.3,0.7-1.9,2-1.9c7.6,0,13.1,0.1,16.4,0.2
				v-4.2c-0.5-0.4-0.8-0.6-1-0.6c-0.1,0-1.1,0.1-3.1,0.3c-2,0.2-4.3,0.4-6.9,0.6s-4.6,0.3-6,0.3c-0.4,0-0.8-0.2-1-0.7
				c-0.3-0.4-0.4-0.8-0.4-1.2v-13.8c0-0.1,0-0.4,0.1-0.8c0-0.4,0.1-0.7,0.2-0.8c0.1-0.1,0.2-0.3,0.4-0.5s0.4-0.3,0.7-0.4
				c0.3-0.1,0.7-0.1,1.1-0.1c0.2,0,5.8,0.3,16.6,1l0.9-0.8v-4.4l-1-0.3c-5.5,0.6-17.1,0.9-34.9,0.9l-0.5,0.5v1.6
				c0.7,0.1,1.2,0.2,1.4,0.2c0.2,0,0.7,0.1,1.3,0.2c0.7,0.1,1.1,0.3,1.4,0.4c0.3,0.2,0.7,0.4,1.1,0.7s0.8,0.6,1,1s0.4,0.8,0.6,1.4
				c0.2,1,0.3,4.1,0.3,9.4v30.7c0,0.7,0.2,1.3,0.8,1.9c0.5,0.6,1,1.1,1.6,1.4c0.7,0.2,3.1,0.3,6.9,0.3c10.3,0,18.6,0.2,24.9,0.6
				l1.9-5.4l-0.7-0.6L68.9,573.5L68.9,573.5z"/>
			<polygon class="st0" points="76.4,513.8 72.1,510.5 71.2,510.6 63.1,522.3 64.6,524.8 			"/>
			<path class="st0" d="M124.2,568.8c-4.3,3.3-8.4,4.9-12,4.9c-1.5,0-2.8-0.3-4-0.9s-2.1-1.4-2.8-2.3c-0.7-0.9-1.3-2-1.8-3.2
				s-0.8-2.4-1-3.6s-0.3-2.3-0.3-3.5c0-1.4,0.1-2.9,0.4-4.4c0.3-1.6,0.7-3.2,1.2-4.8s1.4-3,2.5-4.1s2.4-1.6,3.9-1.6
				c2.2,0,3.8,0.9,4.8,2.6s1.6,3.8,1.6,6.3l1.2,0.5l6.7-3.9c-0.1-1.5-0.5-2.9-1.2-4s-1.6-2-2.7-2.6s-2.3-1.1-3.5-1.3s-2.6-0.4-4-0.4
				c-2.8,0-5.3,0.4-7.6,1.3c-2.3,0.8-4.1,2-5.6,3.4s-2.7,3-3.7,4.9s-1.7,3.8-2.1,5.8s-0.6,4.1-0.6,6.2c0,1.8,0.3,3.6,0.8,5.3
				c0.5,1.7,1.3,3.2,2.3,4.6s2.4,2.5,4.2,3.3c1.8,0.8,3.8,1.2,6.1,1.2c6.7,0,12.9-2.9,18.8-8.6l-0.7-1L124.2,568.8L124.2,568.8z"/>
			<path class="st0" d="M159.5,547.1c-3-2.6-7.3-3.9-12.9-3.9s-10.3,1.7-13.9,5.1c-3.7,3.4-5.5,7.7-5.5,12.9c0,6.2,1.8,10.9,5.2,14
				c2.6,2.3,6.7,3.5,12.3,3.5c2.2,0,4.3-0.2,6.2-0.7c1.9-0.5,3.7-1.2,5.4-2.2c1.7-1,3.1-2.3,4.3-3.9c1.2-1.6,2.1-3.5,2.8-5.8
				c0.7-2.3,1-4.9,1-7.8C164.3,553.7,162.7,550,159.5,547.1L159.5,547.1z M154.9,562.2c0,0.9-0.1,2.1-0.2,3.4s-0.3,2.4-0.6,3.2
				c-0.2,0.9-0.6,1.8-1.1,2.7c-0.5,0.9-1.1,1.7-1.7,2.3c-0.7,0.6-1.5,1-2.5,1.4s-2.2,0.6-3.5,0.6c-1.4,0-2.6-0.4-3.7-1.1
				s-1.9-1.6-2.6-2.7c-0.6-1.1-1.1-2.3-1.5-3.7c-0.4-1.4-0.7-2.7-0.8-3.8c-0.1-1.2-0.2-2.3-0.2-3.4c0-1.3,0.1-2.7,0.3-4
				c0.2-1.3,0.5-2.7,0.9-4c0.5-1.4,1-2.6,1.7-3.6s1.6-1.9,2.8-2.5c1.2-0.7,2.5-1,3.9-1c1.7,0,3.1,0.4,4.3,1.1c1.2,0.7,2.1,1.7,2.8,3
				c0.6,1.3,1.1,2.6,1.4,4s0.4,2.9,0.4,4.6C155,560.2,154.9,561.3,154.9,562.2L154.9,562.2z"/>
			<path class="st0" d="M190.4,569.1c-2,2.1-3.8,3.2-5.4,3.2c-0.5,0-0.9-0.1-1.2-0.3c-0.3-0.2-0.6-0.6-0.8-0.9
				c-0.2-0.4-0.4-0.9-0.5-1.6s-0.2-1.4-0.2-2.2c0-0.7-0.1-1.7-0.1-2.8c0-0.4,0-0.9,0-1.6s0-1.2,0-1.5l0.6-32.5l-1-0.8l-13.4,1.2
				l-0.8,0.6v1.6c0.2,0,0.5,0,1,0s0.8,0,1,0.1s0.5,0,0.9,0.1s0.7,0.1,0.9,0.1c0.2,0.1,0.4,0.1,0.8,0.2s0.6,0.2,0.7,0.3
				c0.2,0.1,0.3,0.3,0.5,0.4c0.2,0.2,0.4,0.3,0.5,0.6c0.1,0.2,0.2,0.5,0.3,0.8c0.1,0.5,0.2,2.5,0.4,6.2c0.1,2.6,0.1,6.7,0.1,12.1
				c0,2-0.1,4.8-0.1,8.5c-0.1,3.7-0.1,6.4-0.1,8.2v1.5c0,0.3,0,0.8,0.1,1.4c0,0.6,0.1,1.1,0.2,1.4s0.2,0.8,0.3,1.3s0.3,0.9,0.5,1.2
				c0.2,0.3,0.5,0.6,0.8,1c0.3,0.3,0.7,0.6,1.1,0.8c0.4,0.2,0.9,0.3,1.4,0.5c0.6,0.1,1.2,0.2,1.8,0.2c3.8,0,7.7-2.7,11.9-8.1
				l-1.2-1.2L190.4,569.1L190.4,569.1z"/>
			<path class="st0" d="M228.6,552.9c0-1.9-0.4-3.5-1.2-4.9s-1.9-2.5-3.2-3.3c-1.4-0.8-2.8-1.3-4.4-1.7c-1.6-0.4-3.3-0.5-5.1-0.5
				c-3.3,0-6.3,0.6-9,1.8c-2.7,1.2-4.8,2.8-6.4,4.7c-1.6,2-2.9,4.2-3.7,6.6c-0.9,2.5-1.3,5-1.3,7.7c0,5.4,1.5,9.4,4.4,12.1
				c2.7,2.4,6.5,3.7,11.4,3.7c2.7,0,5.4-0.6,8.1-1.9c2.7-1.3,5.6-3,8.6-5.1l-0.8-1.4l-1.1-0.3c-4.3,2.5-8,3.8-11.1,3.8
				c-2.3,0-4.2-0.6-5.9-1.7s-2.9-2.6-3.7-4.3c-0.8-1.7-1.2-3.6-1.2-5.5c15.5-4.7,23.4-7.1,23.5-7.1
				C227.7,555.2,228.5,554.3,228.6,552.9L228.6,552.9z M218.4,554.9c-0.8,0.4-2.8,1-6,2c-3.3,0.9-6.1,1.8-8.5,2.6c0,0-0.1,0-0.2,0
				c-0.1,0-0.2,0-0.2,0c-0.4,0-0.5-0.1-0.5-0.4c0-1.1,0.1-2.3,0.3-3.5s0.5-2.4,1-3.6c0.5-1.3,1.1-2.4,1.8-3.4s1.7-1.8,2.9-2.4
				s2.6-0.9,4-0.9c2.2,0,3.8,0.8,4.9,2.4s1.7,3.4,1.7,5.5C219.6,554,219.2,554.6,218.4,554.9L218.4,554.9z"/>
			<path class="st0" d="M308,572.9c-1.9,0.4-3.3,0.6-4.2,0.6c-0.8,0-1.6-0.3-2.3-0.8c-0.8-0.6-1.5-1.3-2.2-2.4s-1.3-2.1-1.8-3.2
				s-1.1-2.4-1.7-4c-0.6-1.6-1-2.9-1.3-3.9s-0.7-2.2-1.2-3.7l-8.1-26.7h-16.4v2.7l6.9,0.8c0.1,0,0.2,0.1,0.2,0.3
				c0,0.2,0,0.3-0.1,0.3c-7.6,14.3-16.6,29-27,44.3l0.1,0.7l9.2-0.8c3.7-9.4,6.4-15.5,8-18.5h18.3l3.7,13c0.3,1,0.6,1.8,0.9,2.5
				c0.3,0.7,0.8,1.5,1.3,2.2c0.6,0.8,1.2,1.3,2.1,1.8c0.8,0.4,1.8,0.6,2.8,0.6c1.3,0,2.8-0.2,4.6-0.7s3.1-0.9,4.1-1.3
				c0.9-0.4,2.5-1,4.6-2L308,572.9L308,572.9z M282.7,554.9c-0.2,0.1-0.3,0.1-0.4,0.1h-12.5c-0.1,0-0.3-0.1-0.5-0.2
				s-0.3-0.2-0.3-0.3c0-0.3,0.1-0.5,0.1-0.6l7.7-14.9c0.2-0.4,0.4-0.6,0.6-0.6c0.3,0,0.6,0.2,0.7,0.6l4.8,14.7
				c0,0.1,0.1,0.4,0.1,0.9C283,554.7,282.9,554.8,282.7,554.9L282.7,554.9z"/>
			<path class="st0" d="M332,543.2c-1.9,0-3.8,0.6-5.5,1.8c-1.8,1.2-3.6,2.7-5.5,4.6l-0.8-0.3c0-2-0.3-3.5-1-4.6s-1.9-1.6-3.8-1.6
				c-0.9,0-1.9,0.2-3,0.5s-2.1,0.8-3.2,1.5c-1.1,0.7-2,1.3-2.7,1.8s-1.6,1.2-2.7,2l1.2,1.7c0.7-0.6,1.6-1.1,2.5-1.5s1.8-0.7,2.4-0.7
				c0.3,0,0.6,0.1,0.9,0.2c0.3,0.1,0.5,0.3,0.7,0.5s0.3,0.5,0.5,0.7c0.1,0.2,0.2,0.6,0.3,1s0.1,0.8,0.2,1.2s0.1,0.8,0.1,1.3
				c0,0.6,0,1,0,1.4v2.4c0,2.8-0.2,9.8-0.5,20.9l1.5,0.5l7.7-2.8c-0.7-7.5-1-12.8-1-16c0-1.1,0.1-2.2,0.3-3.3s0.5-2.2,1-3.3
				c0.5-1.1,1.2-2,2.1-2.7s2.1-1,3.5-1c1.1,0,2.1,0.4,2.8,1.1s1.2,1.7,1.4,2.8l1,0.6l5.4-4.2c0-1.8-0.5-3.3-1.4-4.6
				C335.4,543.8,333.9,543.2,332,543.2L332,543.2z"/>
			<path class="st0" d="M380,569.7c-2.2,2-3.9,3-5.1,3c-0.6,0-1.1-0.2-1.4-0.5c-0.4-0.4-0.6-1.1-0.7-2.1c-0.1-1-0.2-2-0.2-2.9
				s0-2.3,0-4.3c0-5.1,0.4-11.6,1.2-19.5l-1-0.7l-4.4,2.7c-3.4-2-7-3.1-10.6-3.1c-5.8,0-10.2,1.8-13.2,5.6c-3,3.7-4.5,9.2-4.5,16.4
				c0,1.6,0.2,3.2,0.5,4.8s0.9,3.2,1.7,4.7s1.8,2.8,3.2,3.7s3.1,1.4,4.9,1.4c4.3,0,8.8-1.8,13.6-5.3l0.9,0.3
				c0.4,3.2,1.9,4.8,4.5,4.8c1.2,0,2.3-0.2,3.5-0.7c1.2-0.4,2.3-1.1,3.3-1.9s2-1.6,2.7-2.4s1.6-1.7,2.5-2.7L380,569.7L380,569.7z
				 M364.4,569.5c-2.8,2.6-5.7,3.9-8.5,3.9c-1.4,0-2.7-0.4-3.8-1.1c-1.1-0.8-1.9-1.8-2.4-3c-0.5-1.3-0.9-2.5-1.2-3.8s-0.4-2.6-0.4-4
				c0-1.2,0.1-2.3,0.2-3.5c0.1-1.1,0.3-2.3,0.6-3.7c0.3-1.3,0.7-2.5,1.2-3.5c0.5-1.1,1.1-2.1,1.8-2.9c0.7-0.9,1.6-1.6,2.7-2.1
				c1.1-0.5,2.3-0.8,3.7-0.8c4.5,0,6.7,3.1,6.7,9.2C365,561.6,364.7,566.7,364.4,569.5L364.4,569.5z"/>
			<path class="st0" d="M418.7,552.8c-0.2-1.3-0.7-2.6-1.2-3.8c-0.6-1.2-1.3-2.3-2.2-3.3c-0.9-0.9-2-1.7-3.3-2.2
				c-1.3-0.6-2.8-0.9-4.4-0.9c-4.5,0-9,1.9-13.6,5.6l-0.8-0.2l0.5-19.7l-1.1-0.9l-13.7,2l-0.6,0.6v1.6c2.4,0.2,4.1,0.5,5.2,1
				c1.1,0.4,1.6,1.2,1.6,2.2c0,0.6,0,1.7,0.1,3.2c0,1.4,0.1,2.7,0.1,3.7v24.7c0,2.3,0.3,4.3,0.9,6c0.6,1.7,1.5,3,2.6,3.9
				s2.3,1.6,3.6,2s2.7,0.6,4.3,0.6c5.4,0,10.6-2.1,15.5-6.2c2.4-1.9,4.1-4.3,5.3-7.1c1.2-2.8,1.8-5.8,1.8-8.9
				C419.2,555.4,419.1,554.1,418.7,552.8L418.7,552.8z M410.2,564.8c-0.2,1.3-0.5,2.5-1,3.8s-1.1,2.4-1.9,3.3
				c-0.8,0.9-1.7,1.7-2.9,2.3c-1.2,0.6-2.6,0.9-4.1,0.9c-1.4,0-2.6-0.4-3.6-1.3s-1.7-2-2.2-3.5s-0.8-2.9-1-4.4
				c-0.2-1.4-0.3-3-0.3-4.7l0.2-9.6c1-0.8,1.9-1.3,2.6-1.8c0.7-0.4,1.6-0.9,2.7-1.3s2.1-0.6,3.1-0.6c5.8,0,8.7,4.3,8.7,12.9
				C410.5,562.2,410.4,563.5,410.2,564.8L410.2,564.8z"/>
			<path class="st0" d="M461.9,552.9c0-1.9-0.4-3.5-1.2-4.9s-1.9-2.5-3.2-3.3c-1.4-0.8-2.8-1.3-4.4-1.7c-1.6-0.4-3.3-0.5-5.1-0.5
				c-3.3,0-6.3,0.6-9,1.8c-2.7,1.2-4.8,2.8-6.4,4.7c-1.6,2-2.9,4.2-3.7,6.6c-0.9,2.5-1.3,5-1.3,7.7c0,5.4,1.5,9.4,4.4,12.1
				c2.7,2.4,6.5,3.7,11.4,3.7c2.7,0,5.4-0.6,8.1-1.9c2.7-1.3,5.6-3,8.6-5.1l-0.8-1.4l-1.1-0.3c-4.3,2.5-8,3.8-11.1,3.8
				c-2.2,0-4.2-0.6-5.9-1.7s-2.9-2.6-3.7-4.3s-1.2-3.6-1.2-5.5c15.5-4.7,23.4-7.1,23.5-7.1C461.2,555.2,461.9,554.3,461.9,552.9
				L461.9,552.9z M451.7,554.9c-0.8,0.4-2.8,1-6,2c-3.3,0.9-6.1,1.8-8.5,2.6c0,0-0.1,0-0.2,0c-0.1,0-0.2,0-0.2,0
				c-0.4,0-0.5-0.1-0.5-0.4c0-1.1,0.1-2.3,0.3-3.5s0.5-2.4,1-3.6c0.5-1.3,1.1-2.4,1.8-3.4s1.7-1.8,2.9-2.4s2.6-0.9,4.1-0.9
				c2.2,0,3.8,0.8,4.9,2.4c1.1,1.6,1.7,3.4,1.7,5.5C452.9,554,452.5,554.6,451.7,554.9L451.7,554.9z"/>
			<path class="st0" d="M503.5,540.8c0.8-2,1.8-3.7,3.1-5.2s2.8-2.7,4.8-3.6c2-0.9,4.2-1.4,6.7-1.4c1.8,0,3.4,0.3,4.9,0.9
				s2.7,1.5,3.8,2.6s1.9,2.3,2.6,3.6c0.7,1.3,1.3,2.7,1.8,4.2l1.3,0.6l7.1-6.4c-3.2-5.9-9.6-8.9-19.2-8.9c-4.2,0-8.1,0.6-11.8,1.7
				c-3.7,1.1-6.9,2.9-9.6,5.3c-2.8,2.5-4.9,5.5-6.2,8.9s-2,7.1-2,10.9c0,8.3,2.5,14.6,7.4,19c4.3,3.9,10.3,5.9,17.9,5.9
				c3.4,0,6.8-0.3,10.2-0.9s7.4-1.5,11.9-2.7c-0.3-4.5-0.5-8.4-0.5-11.6c0-2.5,0.1-5.3,0.4-8.4l-24.8,0.9v2.7
				c1.2,0.1,2.4,0.1,3.6,0.2s2.3,0.1,3.1,0.2c0.8,0,1.6,0.1,2.5,0.1c0.8,0.1,1.5,0.1,2,0.1s1,0.1,1.5,0.2s0.9,0.2,1.1,0.3
				s0.5,0.3,0.8,0.5c0.2,0.2,0.4,0.4,0.5,0.7c0.1,0.3,0.2,0.6,0.2,0.9v5.4c0,0.4,0,1.1,0.1,2.1c0,0.9,0.1,1.6,0,2.1s-0.1,1-0.2,1.5
				c-0.1,0.6-0.3,1-0.6,1.3s-0.7,0.4-1.1,0.5c-1.1,0.1-2.8,0.2-5.1,0.2c-2.9,0-5.5-0.4-7.9-1.3c-2.3-0.9-4.3-2.1-5.8-3.5
				s-2.8-3.2-3.8-5.1c-1-2-1.7-4-2.2-6s-0.6-4.2-0.6-6.4c0-2,0.2-4,0.5-5.9S502.7,542.8,503.5,540.8L503.5,540.8z"/>
			<path class="st0" d="M626.6,569.8h-0.9c-1.8,1.2-3.4,1.8-4.9,1.8c-0.9,0-1.6-0.2-2.1-0.7c-0.3-0.2-0.5-0.5-0.6-0.7
				s-0.3-0.7-0.4-1.4c-0.1-0.7-0.2-1.7-0.2-3c0-0.8,0-2,0.1-3.7s0.1-2.9,0.1-3.6v-2.1c0-2.3,0-3.8,0-4.7c0-0.9-0.2-2.1-0.4-3.6
				s-0.6-2.6-1.1-3.1c-0.5-0.6-1.2-1.1-2.2-1.6s-2.2-0.8-3.6-0.8c-4.2,0-9,1.7-14.5,5l-0.9-0.3c-0.1-1.5-0.5-2.7-1.2-3.6
				s-1.9-1.3-3.6-1.3c-0.9,0-2,0.2-3,0.5c-1.1,0.3-2.1,0.8-3.2,1.5c-1.1,0.7-2,1.3-2.8,1.8c-0.4,0.3-0.8,0.6-1.2,0.9
				c-0.7-0.9-1.6-1.7-2.6-2.3c-1.4-0.8-2.8-1.3-4.4-1.7c-1.6-0.4-3.3-0.5-5.1-0.5c-3.3,0-6.3,0.6-9,1.8c-2.7,1.2-4.8,2.8-6.4,4.7
				c-1.6,2-2.9,4.2-3.7,6.6c-0.9,2.5-1.3,5-1.3,7.7c0,5.4,1.5,9.4,4.4,12.1c2.7,2.4,6.5,3.7,11.4,3.7c2.7,0,5.4-0.6,8.1-1.9
				c2.7-1.3,5.6-3,8.6-5.1l-0.8-1.4l-1.1-0.3c-4.3,2.5-8,3.8-11.1,3.8c-2.2,0-4.2-0.6-5.9-1.7s-2.9-2.6-3.7-4.3s-1.2-3.6-1.2-5.5
				c15.5-4.7,23.4-7.1,23.5-7.1c1.4-0.4,2.1-1.3,2.1-2.7s-0.2-2.7-0.7-3.8c0.1-0.1,0.3-0.1,0.4-0.2c0.3-0.2,0.7-0.4,1.1-0.6
				c0.4-0.2,0.8-0.4,1.2-0.5s0.7-0.2,1-0.2c0.4,0,0.8,0.1,1.2,0.3c0.3,0.2,0.6,0.5,0.8,1s0.4,0.9,0.5,1.3s0.2,1,0.2,1.8
				c0.1,0.8,0.1,1.4,0.1,1.9s0,1.2,0,2.2v0.6c0,2.3-0.2,9.3-0.5,20.9l0.9,0.5l8-2.3c-0.2-1-0.4-4.2-0.5-9.5s-0.2-10.5-0.2-15.6
				c4.1-2.2,7.1-3.3,8.8-3.3c1.9,0,3.2,0.4,4.1,1.1c0.6,0.6,1.1,1.6,1.4,3.2c0.3,1.5,0.5,2.9,0.6,4.1s0.1,2.8,0.1,4.7
				c0,1.1,0,2.5,0,4.1s0,2.7,0,3.5s0,1.7,0,2.7s0.1,1.8,0.1,2.3c0.1,0.5,0.2,1.1,0.3,1.7s0.3,1.1,0.5,1.4s0.5,0.7,0.8,0.9
				c1,0.9,2.3,1.4,3.9,1.4c1.8,0,3.8-0.9,6.1-2.7c1.1-0.8,2.9-2.5,5.5-5L626.6,569.8L626.6,569.8z M571.8,554.9c-0.8,0.4-2.8,1-6,2
				c-3.3,0.9-6.1,1.8-8.5,2.6c-0.1,0-0.1,0-0.2,0c-0.1,0-0.2,0-0.2,0c-0.4,0-0.5-0.1-0.5-0.4c0-1.1,0.1-2.3,0.3-3.5s0.5-2.4,1-3.6
				c0.5-1.3,1.1-2.4,1.8-3.4s1.7-1.8,2.9-2.4s2.6-0.9,4.1-0.9c2.2,0,3.8,0.8,4.9,2.4c1.1,1.6,1.7,3.4,1.7,5.5
				C572.9,554,572.5,554.6,571.8,554.9L571.8,554.9z"/>
			<polygon class="st0" points="651.2,535.7 643.2,524.1 642.2,523.9 638,527.2 649.8,538.2 			"/>
			<path class="st0" d="M697.8,545.9c-0.6-1.3-1.6-2.3-2.8-3.1h-0.9l-5.5,4.1v1.2c0.9,1.1,1.7,2.5,2.3,3.9s0.9,2.9,0.9,4.2
				c0,4.6-2.3,8.8-6.8,12.7c-0.6,0.5-1.2,0.8-2,0.8c-1,0-1.9-1.2-2.7-3.7c-0.9-2.4-1.6-5.1-2.1-8.2c-0.6-3-1.2-5.9-2-8.8
				s-1.6-4.6-2.4-5.3c-0.8-0.6-1.7-0.8-3-0.8c-1.1,0-2.5,0.3-4,1c-1.5,0.6-2.8,1.3-3.8,1.9c-0.4,0.2-0.8,0.5-1.2,0.8
				c-0.7-0.8-1.4-1.5-2.3-2c-1.4-0.8-2.8-1.3-4.4-1.7c-1.6-0.4-3.3-0.5-5.1-0.5c-3.3,0-6.3,0.6-9,1.8c-2.7,1.2-4.8,2.8-6.4,4.7
				c-1.6,2-2.9,4.2-3.7,6.6c-0.9,2.5-1.3,5-1.3,7.7c0,5.4,1.5,9.4,4.4,12.1c2.7,2.4,6.5,3.7,11.4,3.7c2.7,0,5.4-0.6,8.1-1.9
				c2.7-1.3,5.6-3,8.6-5.1l-0.8-1.4l-1.1-0.3c-4.3,2.5-8,3.8-11.1,3.8c-2.2,0-4.2-0.6-5.9-1.7s-2.9-2.6-3.7-4.3s-1.2-3.6-1.2-5.5
				c15.5-4.7,23.4-7.1,23.5-7.1c1.4-0.4,2.1-1.3,2.1-2.7c0-1.5-0.2-2.8-0.7-4c1-0.3,1.7-0.5,2.2-0.5c0.7,0,1.3,0.2,1.9,0.8
				c0.5,0.5,1,1.2,1.4,2.2s0.7,1.9,0.9,2.8s0.5,2,0.8,3.3s0.5,2.3,0.6,2.9c1.3,5.1,2.8,11.2,4.4,18.4h3.2c0.1,0,0.1-0.1,0.2-0.1
				c0.1,0,0.1-0.1,0.2-0.2c5.4-4.4,10.3-9.5,14.5-15.2c1.7-2.4,3.1-4.6,4.1-6.8s1.5-4.3,1.5-6.5
				C698.8,548.6,698.4,547.3,697.8,545.9L697.8,545.9z M653.6,554.9c-0.8,0.4-2.8,1-6,2c-3.3,0.9-6.1,1.8-8.5,2.6
				c-0.1,0-0.1,0-0.2,0c-0.1,0-0.1,0-0.2,0c-0.4,0-0.5-0.1-0.5-0.4c0-1.1,0.1-2.3,0.3-3.5s0.5-2.4,1-3.6c0.5-1.3,1.1-2.4,1.8-3.4
				s1.7-1.8,2.9-2.4s2.6-0.9,4-0.9c2.2,0,3.9,0.8,4.9,2.4c1.1,1.6,1.7,3.4,1.7,5.5C654.8,554,654.4,554.6,653.6,554.9L653.6,554.9z"
				/>
			<path class="st0" d="M737.9,552.9c0-1.9-0.4-3.5-1.2-4.9s-1.9-2.5-3.2-3.3c-1.4-0.8-2.8-1.3-4.4-1.7c-1.6-0.4-3.3-0.5-5.1-0.5
				c-3.3,0-6.3,0.6-9,1.8c-2.7,1.2-4.8,2.8-6.4,4.7c-1.6,2-2.9,4.2-3.7,6.6c-0.9,2.5-1.3,5-1.3,7.7c0,5.4,1.5,9.4,4.4,12.1
				c2.7,2.4,6.5,3.7,11.4,3.7c2.7,0,5.4-0.6,8.1-1.9c2.7-1.3,5.6-3,8.6-5.1l-0.8-1.4l-1.1-0.3c-4.3,2.5-8,3.8-11.1,3.8
				c-2.3,0-4.2-0.6-5.9-1.7s-2.9-2.6-3.7-4.3c-0.8-1.7-1.2-3.6-1.2-5.5c15.5-4.7,23.4-7.1,23.5-7.1
				C737.2,555.2,737.9,554.3,737.9,552.9L737.9,552.9z M727.8,554.9c-0.8,0.4-2.8,1-6,2c-3.3,0.9-6.1,1.8-8.5,2.6c0,0-0.1,0-0.2,0
				c-0.1,0-0.2,0-0.2,0c-0.4,0-0.5-0.1-0.5-0.4c0-1.1,0.1-2.3,0.3-3.5s0.5-2.4,1-3.6c0.5-1.3,1.1-2.4,1.8-3.4s1.7-1.8,2.9-2.4
				s2.6-0.9,4-0.9c2.2,0,3.8,0.8,4.9,2.4s1.7,3.4,1.7,5.5C728.9,554,728.5,554.6,727.8,554.9L727.8,554.9z"/>
		</g>
	</g>
	<g>
		
			<linearGradient id="SVGID_1_" gradientUnits="userSpaceOnUse" x1="411.364" y1="-2068.3904" x2="404.674" y2="-1385.8004" gradientTransform="matrix(1 0 0 1 0 1835.8899)">
			<stop  offset="0.13" style="stop-color:#8DC63F"/>
			<stop  offset="0.51" style="stop-color:#8BC43E"/>
			<stop  offset="0.64" style="stop-color:#84BF3E"/>
			<stop  offset="0.74" style="stop-color:#78B73D"/>
			<stop  offset="0.82" style="stop-color:#67AB3D"/>
			<stop  offset="0.88" style="stop-color:#519C3C"/>
			<stop  offset="0.94" style="stop-color:#36893A"/>
			<stop  offset="0.99" style="stop-color:#177339"/>
			<stop  offset="1" style="stop-color:#137039"/>
		</linearGradient>
		<path class="st1" d="M414.2,126.9l0.1,0.2c-1.7,0.5-3.4,0.8-5,0.8c-2.2,0-4.1-0.4-5.9-1.2c-1.8-1-2-1.7-2.1-1.7
			c0-1.6,0.5-2.3,0.9-2.7c0.7-0.7,1.7-1.2,2.8-1.6c0.5,0,1.8,0.3,4.3,1.7c2.1,1.2,3.6,2.6,4.5,4.1l0.1,0.2
			C414.2,126.8,414.2,126.9,414.2,126.9L414.2,126.9z"/>
		
			<linearGradient id="SVGID_00000021098966973235923240000009391347908767096461_" gradientUnits="userSpaceOnUse" x1="395.2743" y1="-1881.77" x2="390.3243" y2="-1377.02" gradientTransform="matrix(1 0 0 1 0 1835.8899)">
			<stop  offset="0" style="stop-color:#8DC63F"/>
			<stop  offset="0.11" style="stop-color:#88C23E"/>
			<stop  offset="0.22" style="stop-color:#7BB93E"/>
			<stop  offset="0.34" style="stop-color:#65AA3D"/>
			<stop  offset="0.46" style="stop-color:#47943B"/>
			<stop  offset="0.59" style="stop-color:#207939"/>
			<stop  offset="0.63" style="stop-color:#137039"/>
		</linearGradient>
		<path style="fill:url(#SVGID_00000021098966973235923240000009391347908767096461_);" d="M609,242.1
			c0-119.6-96.9-216.5-216.5-216.5S176,122.5,176,242.1c0,36.2,8.9,70.3,24.7,100.3l-3.8-77.9C349.2,271.3,392.5,376,392.5,376
			s43.2-104.6,195.6-111.5l-3.8,77.9C600.1,312.4,609,278.3,609,242.1L609,242.1z M468.5,154.5c1,0.5,1.4,1.2,1.5,1.7
			c0.1,0.4,0.2,1.3-0.4,2.2c-1,1.4-2.7,3.9-5.1,7.1l-0.3,0.4l-0.4,0.2c-5.5,2.5-11.4,5.1-18.6,8.2c-13.8,6.3-25,12.2-33.3,17.4
			c-1.1,0.8-2,1.1-2.7,1.1c-1.3,0-2.2-1-2.2-2.3c0-1.2,0.6-2.7,3.8-6.5c2.3-2.8,4.5-4.8,6.5-6.2c5.5-3.6,14.2-8.2,26.8-14.1
			c9.7-4.6,16.7-7.6,20.9-9.2C466.5,153.8,467.7,154.1,468.5,154.5L468.5,154.5z M433.7,98.8l4.4-7.2l2.5,3.8l-0.1,3.3v1.9l1.1,7.9
			l2.4,14.8l0.9,8.1l0.4,6.4l-0.1,3c0,0.8,0,1.6-0.2,2.5l-0.2,2.3v1.1l-0.4,1.2c-0.1,1.4-0.5,3.2-1.2,5.4c-0.7,3.1-1.8,6.1-3.1,8.9
			l-0.8,1.7l-4.5-2l1.4-4l0.4-1.3l0.1-1.6l0.8-11.6c0-2.2-0.5-6.1-1.4-12l-2.7-15.5l-1.4-10.3C431.7,103.7,432.4,101.4,433.7,98.8
			L433.7,98.8z M396.5,79.5l11,6.1l3.1-4.6l1-1.5l4.1,2.2l0,0l0.3,0.2l9.1,5.1l-7.9,12.1l-10.9-6.3l-4.1,6.3l-13.9-7.8L396.5,79.5
			L396.5,79.5z M330.5,74.6c0.4-0.6,0.8-1.2,1.2-1.8c2.4-3.5,5.4-5.3,8.9-5.3c4.6,0,6.6,2,7.4,3.6c0.7,1.1,1,2.5,1,4.2
			c0,1.5-0.4,3.1-1.2,4.8l-1,2.1l-1.8-1.3c-4.9-3.6-6.9-3.9-7.3-3.9c-2.2,0-2.2,0.7-2.2,1.5c0,1.4,1.8,2.8,3.3,3.8
			c2.5,1.5,4.6,2.3,6.4,2.3c0.9-0.2,1.9-0.4,2.8-0.6c0.3-0.1,0.6-0.1,0.9-0.2c0.7-0.1,1.4-0.3,2.1-0.4l3.5-1.3V92l-25.7,10.8
			l1.4-7.8l0.7-0.4c1.3-0.9,2.5-1.8,3.5-2.7c-0.3-0.1-0.7-0.2-1-0.4c-1.6-0.6-2.8-1.6-3.6-2.9h-0.4l0.3-0.1
			c-0.9-1.4-1.4-3.1-1.4-5.2C328.1,80.2,328.7,77.5,330.5,74.6L330.5,74.6z M323.1,129.8c2.3-2.8,4.5-4.9,6.6-6.2
			c2-1.3,4.4-2.7,7.2-4.3l-0.9-6.8c0-2.1,0.7-4.4,2.1-7.1l0.1-0.1l4.4-7.1l2.5,3.8l-0.2,3.3v1.9l1,7.4c3.1-1.5,6.6-3.2,10.7-5.1
			c10.6-4.9,17-7.8,20.9-9.2c1.4-0.5,2.6-0.5,3.6,0c1,0.6,1.4,1.3,1.4,1.9c0.1,0.7-0.1,1.4-0.5,2c-1.1,1.7-2.8,3.9-5.1,7.1l-0.3,0.4
			l-0.4,0.2c-5.5,2.5-11.4,5.1-18.6,8.2c-3.5,1.6-6.9,3.2-10.1,4.8l0.8,5.2l0.9,8.2l0.4,6.4l-0.1,3c0,0.8-0.1,1.7-0.2,2.4l-0.2,2.3
			v1.1l-0.4,1.2c-0.2,1.5-0.6,3.3-1.3,5.4c-0.8,3.2-1.8,6.2-3.1,8.9l-0.8,1.7l-4.6-1.9l1.5-4l0.4-1.3l0.2-1.6l0.8-11.5
			c0-2.2-0.5-6.1-1.4-12l-1.6-8.9c-5.4,2.9-10.2,5.6-14.4,8.2c-1.2,0.8-2,1.1-2.7,1.1c-1.2,0-2.2-1-2.2-2.3
			C319.2,135.1,320,133.6,323.1,129.8L323.1,129.8z M318.4,171l1,1.2c2.1,2.7,4.5,4.9,7.1,6.8c2.9,2.1,5.4,3.2,7.4,3.2
			c1,0,2.2-0.3,3.8-0.9s3.3-1.4,5.2-2.6c3.6-2,8.4-5.8,14.1-11.4c6.3-6.1,7.4-8,7.6-8.5c-0.1-0.6-0.4-2-2-4.6l-2.4-3.7l-3.6-5.8
			c-0.4-0.7-0.8-1.4-1-2.1c-0.3-0.7-0.4-1.2-0.5-1.7v-0.3l0.8-5c1-4.5,1.8-5.8,2.5-6.5l1.6-1.8l4.4,6.4l4.8,8
			c0.4,0.5,1.6,1.6,5.2,3.7c3.2,1.9,6,2.9,8.1,2.9h4.3L400,148c6.6,0,11.5-0.8,14.6-2.2c1.8-0.9,3.1-2.2,4-3.8
			c0.4-0.6,0.5-1.2,0.5-2.1v-1.8c0-0.1-0.1-0.5-0.5-1.2v-0.1c-0.5,1.6-1.2,2.8-2.1,3.7c-2.5,2.8-5.9,4.2-10.1,4.2
			c-3.1,0-6.1-0.9-9-2.8l-0.2-0.1c-1.4-1.2-2.6-2.6-3.3-4.3c-0.8-2-1.1-3.9-1.1-5.9c0-4.4,1.4-9.4,4.1-14.8c2.3-5.1,5-8.9,7.9-11.4
			c1.9-1.7,4.7-2,7.6-0.9l0.1,0.1c1,0.5,2.1,1.2,3.2,2.1l0.1,0.1l2.1,2l2.3,2.3c2.4,3.2,4.4,6.9,5.9,10.8c0.7,1.8,1.2,3.7,1.6,5.8
			c0.4,2,0.6,4.1,0.6,6.1c0,1.1-0.1,2.2-0.2,3.2c-0.1,1.1-0.4,2.2-0.7,3.5c-0.6,2.4-1.4,4.9-2.6,7.7c-1.6,4-3.1,6.8-4.6,8.5
			c-1.4,1.7-3.9,3.2-7.3,4.5l-0.1,0.1c-2,0.6-3.7,1-5.3,1.3c-1.1,0.2-2.2,0.3-3.3,0.3c-1,0.1-2.2,0.1-3.6,0.1h-20.3
			c-1.2,0-2.7-0.3-4.9-1.1l-0.1-0.1L371,160c-0.1,2-0.2,3.8-0.5,5.4c-0.5,3.1-1.6,5.8-3.1,8.3c-1.7,3.1-5.7,7.2-12,12.2
			c-8.9,7.2-11,7.8-12.2,7.8c-2.4,0-5.1-0.6-7.9-1.8c-2.8-1.2-5.7-3.1-8.8-5.6c-4.7-3.6-8.4-7.4-11.1-11.3l-1.3-1.8L318.4,171
			L318.4,171z M392.4,331.9c0,0,4.3-101.6,128.9-166.5l-2.8,27.5C518.5,192.9,437.9,220.5,392.4,331.9
			c-45.5-111.4-126.1-139-126.1-139l-2.8-27.5C388.1,230.3,392.4,331.9,392.4,331.9z M392.4,357.8L392.4,357.8
			c-2.7-6.1-43.1-93.5-171-109.1l3.8-44.5C393.5,264.5,392.4,357.8,392.4,357.8L392.4,357.8z M392.5,358.1c0,0-1.1-93.3,167.2-153.5
			l3.8,44.2C431.1,265,392.5,358.1,392.5,358.1L392.5,358.1z"/>
	</g>
</g>
</svg>
